<?xml version="1.0" standalone="no"?>
<!DOCTYPE svg PUBLIC "-//W3C//DTD SVG 1.1//EN" "http://www.w3.org/Graphics/SVG/1.1/DTD/svg11.dtd" >
<svg>
<metadata>
Created by FontForge 20090914 at Sun May  1 01:26:56 2016
 By www-data
2014 Iconian Fonts - www.iconian.com
</metadata>
<defs>
<font id="Skyhawk" horiz-adv-x="911" >
  <font-face 
    font-family="Skyhawk"
    font-weight="400"
    font-stretch="normal"
    units-per-em="1000"
    panose-1="0 0 0 0 0 0 0 0 0 0"
    ascent="800"
    descent="-200"
    x-height="665"
    cap-height="665"
    bbox="-77 -173 1672 840"
    underline-thickness="50"
    underline-position="-75"
    unicode-range="U+0020-U+2122"
  />
<missing-glyph horiz-adv-x="500" 
 />
    <glyph glyph-name=".notdef" horiz-adv-x="500" 
 />
    <glyph glyph-name="space" unicode=" " horiz-adv-x="583" 
 />
    <glyph glyph-name="space" unicode="&#xa0;" horiz-adv-x="583" 
 />
    <glyph glyph-name="FL0021h" unicode="!" horiz-adv-x="322" 
d="M33 254v411h256v-411h-256zM33 193h256v-193h-256v193z" />
    <glyph glyph-name="FL0022h" unicode="&#x22;" horiz-adv-x="581" 
d="M548 665v-193l-241 -143v336h241zM275 665v-193l-242 -143v336h242z" />
    <glyph glyph-name="FL0023h" unicode="#" horiz-adv-x="968" 
d="M551 665h256v-130h128v-171h-128v-59h128v-171h-128v-134h-256v134h-134v-134h-256v134h-128v171h128v59h-128v171h128v130h256v-130h134v130zM417 364v-59h134v59h-134z" />
    <glyph glyph-name="FL0024h" unicode="$" horiz-adv-x="963" 
d="M33 193l361.998 -0.00390625v56h-173c-4 0 -9 1.16699 -15 3.5s-12.167 5 -18.5 8s-12.166 6.33301 -17.499 10s-9.33301 6.83398 -12 9.50098c-15.333 13.333 -28.333 26.166 -39 38.499s-19.5 25.333 -26.5 39s-12 28.334 -15 44.001s-4.5 33.5 -4.5 53.5
c0 26 4.5 51.5 13.5 76.5s21.833 47.5 38.5 67.5s36.667 36 60 48s49.333 18 78 18h131v85h216v-85h276v-192h-276v-49h136c0.666992 0 3.66699 -0.666992 9 -2s11.333 -3 18 -5s13.334 -4.16699 20.001 -6.5s11.667 -4.16602 15 -5.49902
c45.333 -19.333 76.833 -46.166 94.5 -80.499s26.5 -75.833 26.5 -124.5c0 -18 -4.16699 -38.5 -12.5 -61.5s-19.5 -44.667 -33.5 -65s-30.5 -37.666 -49.5 -51.999s-38.833 -21.5 -59.5 -21.5h-164v-84h-216v84h-362v193zM610.998 248.996v-55.999h45l7 10l7 14l0.5 1.5
c0.333008 1 0.5 1.83301 0.5 2.5c0 1.33301 -0.166992 2.16602 -0.5 2.49902l-0.5 0.5c-0.666992 1.33301 -2 3.83301 -4 7.5s-4 6.16699 -6 7.5c-1.33301 2 -4.5 4.16699 -9.5 6.5s-7.83301 3.5 -8.5 3.5h-31zM394.998 472.997h-39.999
c-5.33301 0 -10.166 -3.66699 -14.499 -11s-6.5 -13 -6.5 -17v-4c1.33301 -2.66699 3.66602 -6.16699 6.99902 -10.5s5.66602 -6.5 6.99902 -6.5h47v49z" />
    <glyph glyph-name="FL0025h" unicode="%" horiz-adv-x="1011" 
d="M33 543c0 12.667 2.33398 26.167 7.00098 40.5s11.334 27.5 20.001 39.5s19 22 31 30s25.333 12 40 12h226c14 0 27 -3.66699 39 -11s22.333 -16.5 31 -27.5s15.5 -23 20.5 -36s7.5 -25.5 7.5 -37.5v-111l185 223h292l-276 -333h224c14 0 27 -3.66699 39 -11
s22.333 -16.5 31 -27.5s15.5 -23 20.5 -36s7.5 -25.5 7.5 -37.5v-108c0 -12 -2.5 -24.667 -7.5 -38s-11.833 -25.5 -20.5 -36.5s-19 -20 -31 -27s-25 -10.5 -39 -10.5h-226c-14.667 0 -28 4 -40 12s-22.333 18 -31 30s-15.334 25.167 -20.001 39.5s-7 27.833 -7 40.5v88
l-175 -210h-293l277 333h-234c-14.667 0 -28 4 -40 12s-22.333 18 -31 30s-15.334 25.167 -20.001 39.5s-7 27.833 -7 40.5v88zM285.001 482v34c0 4 -1 8 -3 12s-4.33301 6 -7 6h-62c-3.33301 0 -6 -2.33301 -8 -7s-3 -8 -3 -10v-36c0 -2 1 -5.33301 3 -10s4.66699 -7 8 -7
h62c2.66699 0 5 2 7 6s3 8 3 12zM808.001 149v34c0 4 -1 8 -3 12s-4.33301 6 -7 6h-62c-3.33301 0 -6 -2.33301 -8 -7s-3 -8 -3 -10v-36c0 -2 1 -5.33301 3 -10s4.66699 -7 8 -7h62c2.66699 0 5 2 7 6s3 8 3 12z" />
    <glyph glyph-name="FL0026h" unicode="&#x26;" horiz-adv-x="960" 
d="M927 254h-123.999c4 -14 6 -28.667 6 -44c0 -26 -4.5 -51.5 -13.5 -76.5s-21.667 -47.333 -38 -67s-36.333 -35.667 -60 -48s-49.834 -18.5 -78.501 -18.5h-396c-29.333 0 -55.666 6.16699 -78.999 18.5s-43.166 28.333 -59.499 48s-29 42 -38 67s-13.5 50.5 -13.5 76.5
c0 24.667 4.5 47.5 13.5 68.5s19.5 38.833 31.5 53.5c-12 14.667 -22.5 32.5 -31.5 53.5s-13.5 44.167 -13.5 69.5c0 26 4.5 51.5 13.5 76.5s21.667 47.333 38 67s36.166 35.667 59.499 48s49.666 18.5 78.999 18.5h500v-192h-408c-6 -0.666992 -11 -4.66699 -15 -12
s-6 -13 -6 -17c0 -7.33301 2.5 -13.5 7.5 -18.5s10.833 -8.16699 17.5 -9.5h608v-162zM315.001 193h212c6 0 11 3.66699 15 11s6 13 6 17c0 6.66699 -2 13.167 -6 19.5s-8.66699 10.5 -14 12.5h-214c-5.33301 -2 -10 -6.16699 -14 -12.5s-6 -12.833 -6 -19.5
c0 -4 2 -9.66699 6 -17s9 -11 15 -11z" />
    <glyph glyph-name="FL0027h" unicode="'" horiz-adv-x="323" 
d="M290 665v-193l-257 -143v336h257z" />
    <glyph glyph-name="FL0028h" unicode="(" horiz-adv-x="507" 
d="M33 492c0 25.333 4.66699 52.335 14 81.002s22.666 55.167 39.999 79.5s38 44.5 62 60.5s50.667 24 80 24h245v-193h-140c-6.66699 0 -12.667 -2.83301 -18 -8.5s-10 -12.167 -14 -19.5s-7.16699 -14.833 -9.5 -22.5s-3.5 -13.5 -3.5 -17.5v-285
c0 -4 1.16699 -9.83301 3.5 -17.5s5.5 -15.334 9.5 -23.001s8.66699 -14.334 14 -20.001s11.333 -8.5 18 -8.5h140v-192h-245c-29.333 0 -56 8 -80 24s-44.667 36.167 -62 60.5s-30.666 50.833 -39.999 79.5s-14 55.667 -14 81v317z" />
    <glyph glyph-name="FL0029h" unicode=")" horiz-adv-x="507" 
d="M474 492c0 25.333 -4.66699 52.335 -14 81.002s-22.666 55.167 -39.999 79.5s-38 44.5 -62 60.5s-50.667 24 -80 24h-245v-193h140c6.66699 0 12.667 -2.83301 18 -8.5s10 -12.167 14 -19.5s7.16699 -14.833 9.5 -22.5s3.5 -13.5 3.5 -17.5v-285
c0 -4 -1.16699 -9.83301 -3.5 -17.5s-5.5 -15.334 -9.5 -23.001s-8.66699 -14.334 -14 -20.001s-11.333 -8.5 -18 -8.5h-140v-192h245c29.333 0 56 8 80 24s44.667 36.167 62 60.5s30.666 50.833 39.999 79.5s14 55.667 14 81v317z" />
    <glyph glyph-name="FL0F98h" unicode="*" horiz-adv-x="329" 
d="M191 523l-31 40l-32 -40l-91 54l43 38l-54 10l35 83l46 -21l-4 45h111l-4 -45l50 21l43 -84l-56 -10l30 -34z" />
    <glyph glyph-name="FL002Bh" unicode="+" horiz-adv-x="564" 
d="M197 115v134h-164v171h164v133h171v-133h163v-171h-163v-134h-171z" />
    <glyph glyph-name="FL002Ch" unicode="," horiz-adv-x="323" 
d="M290 193v-193l-257 -143v336h257z" />
    <glyph glyph-name="FL002Dh" unicode="-" horiz-adv-x="504" 
d="M471 249h-438v171h438v-171z" />
    <glyph glyph-name="FL002Eh" unicode="." horiz-adv-x="322" 
d="M33 193h256v-193h-256v193z" />
    <glyph glyph-name="FL002Fh" unicode="/" horiz-adv-x="910" 
d="M33 0h293l551 665h-292z" />
    <glyph glyph-name="FL0030h" unicode="0" 
d="M33 420c0 25.333 4.66699 52.333 14 81s22.666 55.167 39.999 79.5s38 44.5 62 60.5s50.667 24 80 24h453c28 0 53.833 -7.16699 77.5 -21.5s44.334 -32.5 62.001 -54.5s31.5 -46.167 41.5 -72.5s15 -51.5 15 -75.5v-217c0 -24 -5 -49.167 -15 -75.5
s-23.833 -50.5 -41.5 -72.5s-38.334 -40.167 -62.001 -54.5s-49.5 -21.5 -77.5 -21.5h-453c-29.333 0 -56 8 -80 24s-44.667 36.167 -62 60.5s-30.666 50.833 -39.999 79.5s-14 55.667 -14 81v175zM622 264v137c0 8 -1.16699 16.167 -3.5 24.5s-5.5 16 -9.5 23
s-8.5 12.667 -13.5 17s-10.167 6.5 -15.5 6.5h-246c-6.66699 0 -12.667 -2.83301 -18 -8.5s-10 -12.167 -14 -19.5s-7.16699 -14.833 -9.5 -22.5s-3.5 -13.5 -3.5 -17.5v-143c0 -4 1.16699 -9.83301 3.5 -17.5s5.5 -15.167 9.5 -22.5s8.66699 -13.833 14 -19.5
s11.333 -8.5 18 -8.5h246c5.33301 0 10.5 2.16699 15.5 6.5s9.5 10 13.5 17s7.16699 14.667 9.5 23s3.5 16.5 3.5 24.5zM330 427h252v-189h-252v189z" />
    <glyph glyph-name="FL0031h" unicode="1" horiz-adv-x="398" 
d="M365 665v-665h-256v472h-76v193h332z" />
    <glyph glyph-name="FL0032h" unicode="2" horiz-adv-x="916" 
d="M882 193l0.00195312 -192.998h-849v200c0 48.667 9.33301 90.834 28 126.501s50.667 63.167 96 82.5c7.33301 3.33301 17.166 6.66602 29.499 9.99902s22.166 5 29.499 5h393c1.33301 0 3.66602 2.16699 6.99902 6.5s5.66602 7.83301 6.99902 10.5v4
c0 4 -2.16699 9.66699 -6.5 17s-9.16602 11 -14.499 11h-526v192h617c28.667 0 54.667 -6 78 -18s43.333 -28 60 -48s29.5 -42.5 38.5 -67.5s13.5 -50.5 13.5 -76.5c0 -20 -1.5 -37.833 -4.5 -53.5s-8 -30.334 -15 -44.001s-15.833 -26.667 -26.5 -39
s-23.667 -25.166 -39 -38.499c-2.66699 -2.66699 -6.66699 -5.83398 -12 -9.50098s-11.166 -7 -17.499 -10s-12.5 -5.66699 -18.5 -8s-11 -3.5 -15 -3.5h-414c-0.666992 0 -3.83398 -1.16699 -9.50098 -3.5s-9.16699 -4.5 -10.5 -6.5
c-3.33301 -2.66699 -5.66602 -6.33398 -6.99902 -11.001s-2 -8 -2 -10v-25h590z" />
    <glyph glyph-name="FL0033h" unicode="3" 
d="M596 193c6 0 11 3.66699 15 11s6 13 6 17c0 6.66699 -2 13.167 -6 19.5s-8.66699 10.5 -14 12.5h-277l-152 163h424c6.66699 1.33301 12.5 4.5 17.5 9.5s7.5 11.167 7.5 18.5c0 4 -2 9.66699 -6 17s-9 11.333 -15 12h-563v192h655c28.667 0 54.834 -6.16699 78.501 -18.5
s43.667 -28.333 60 -48s29 -42 38 -67s13.5 -50.5 13.5 -76.5c0 -25.333 -4.5 -48.5 -13.5 -69.5s-19.5 -38.833 -31.5 -53.5c12 -14.667 22.5 -32.5 31.5 -53.5s13.5 -43.833 13.5 -68.5c0 -26 -4.5 -51.5 -13.5 -76.5s-21.667 -47.333 -38 -67s-36.333 -35.667 -60 -48
s-49.834 -18.5 -78.501 -18.5h-655v193h563z" />
    <glyph glyph-name="FL0034h" unicode="4" horiz-adv-x="900" 
d="M427 0l-251.002 -0.000976562c-20 10 -37.333 19.333 -52 28s-27.5 17.834 -38.5 27.501s-20.167 20.167 -27.5 31.5s-13.666 24.666 -18.999 39.999l-6 17l196 188.5l146.5 138.5l106.5 95.5c29.333 25 54.833 44.833 76.5 59.5s40.334 24.834 56.001 30.501
s30.5 8.5 44.5 8.5h208v-665h-256v149zM610.998 347.999l-203 -177h203v177z" />
    <glyph glyph-name="FL0035h" unicode="5" horiz-adv-x="916" 
d="M34 193v-192.998h694c20.667 0 40.5 7.16699 59.5 21.5s35.5 31.666 49.5 51.999s25.167 42 33.5 65s12.5 43.5 12.5 61.5c0 48.667 -9.33301 90.667 -28 126s-50.667 62.666 -96 81.999c-4 2 -8.66699 3.83301 -14 5.5s-11 3.33398 -17 5.00098s-11.5 3 -16.5 4
s-8.83301 1.5 -11.5 1.5h-393c-1.33301 0 -3.66602 2.16699 -6.99902 6.5s-5.66602 7.83301 -6.99902 10.5v32h547v192h-807v-210c0 -20 1.16699 -37.833 3.5 -53.5s6.5 -30.334 12.5 -44.001s14 -26.667 24 -39s22.667 -25.166 38 -38.499
c2.66699 -2.66699 6.66699 -5.83398 12 -9.50098s11.166 -7 17.499 -10s12.5 -5.66699 18.5 -8s11 -3.5 15 -3.5h421c0.666992 0 3.66699 -1.33301 9 -4s8.66602 -5 9.99902 -7c3.33301 -2.66699 5.83301 -6.16699 7.5 -10.5s2.5 -7.5 2.5 -9.5c0 -6.66699 -5 -15 -15 -25
h-575z" />
    <glyph glyph-name="FL0036h" unicode="6" horiz-adv-x="910" 
d="M33 420c0 25.333 4.66602 52.332 13.999 80.999s22.666 55.167 39.999 79.5s38 44.5 62 60.5s50.667 24 80 24h609v-193h-504c-9.33301 0 -17.833 -5.66699 -25.5 -17s-13.167 -22.666 -16.5 -33.999h392c28.667 0 54.834 -6.16699 78.501 -18.5s44 -28.5 61 -48.5
s30.167 -42.833 39.5 -68.5s14 -51.5 14 -77.5v-4c0 -24 -5.33301 -48 -16 -72s-25 -45.833 -43 -65.5s-38.667 -35.667 -62 -48s-48 -18.5 -74 -18.5h-453c-29.333 0 -56 8 -80 24s-44.667 36.167 -62 60.5s-30.666 50.833 -39.999 79.5s-14 55.667 -14 81v175z
M290.999 247.999c1.33301 -5.33301 3.33008 -11.166 5.99707 -17.499s5.83398 -12.333 9.50098 -18s7.83398 -10.334 12.501 -14.001s9.66699 -5.5 15 -5.5h246c10.667 0 20.667 8 30 24c-1.33301 11.333 -4.66602 19.333 -9.99902 24s-9.33301 7 -12 7h-297z" />
    <glyph glyph-name="FL0037h" unicode="7" 
d="M878 665v-193l-254 -472h-292l253 472h-296v-48h-256v241h845z" />
    <glyph glyph-name="FL0038h" unicode="8" horiz-adv-x="912" 
d="M223 665h466c28.667 0 54.834 -6.16699 78.501 -18.5s43.667 -28.333 60 -48s29 -42 38 -67s13.5 -50.5 13.5 -76.5c0 -25.333 -4.5 -48.5 -13.5 -69.5s-19.5 -38.833 -31.5 -53.5c12 -14.667 22.5 -32.5 31.5 -53.5s13.5 -43.833 13.5 -68.5
c0 -26 -4.5 -51.5 -13.5 -76.5s-21.667 -47.333 -38 -67s-36.333 -35.667 -60 -48s-49.834 -18.5 -78.501 -18.5h-466c-29.333 0 -55.666 6.16699 -78.999 18.5s-43.166 28.333 -59.499 48s-29 42 -38 67s-13.5 50.5 -13.5 76.5c0 24.667 4.5 47.5 13.5 68.5
s19.5 38.833 31.5 53.5c-12 14.667 -22.5 32.5 -31.5 53.5s-13.5 44.167 -13.5 69.5c0 26 4.5 51.5 13.5 76.5s21.667 47.333 38 67s36.166 35.667 59.499 48s49.666 18.5 78.999 18.5zM319 416h274c6.66699 1.33301 12.5 4.5 17.5 9.5s7.5 11.167 7.5 18.5
c0 4 -2 9.66699 -6 17s-9 11.333 -15 12h-282c-6 -0.666992 -11 -4.66699 -15 -12s-6 -13 -6 -17c0 -7.33301 2.5 -13.5 7.5 -18.5s10.833 -8.16699 17.5 -9.5zM315 193h282c6 0 11 3.66699 15 11s6 13 6 17c0 6.66699 -2 13.167 -6 19.5s-8.66699 10.5 -14 12.5h-284
c-5.33301 -2 -10 -6.16699 -14 -12.5s-6 -12.833 -6 -19.5c0 -4 2 -9.66699 6 -17s9 -11 15 -11z" />
    <glyph glyph-name="FL0039h" unicode="9" horiz-adv-x="910" 
d="M877 245c0 -25.333 -4.66602 -52.332 -13.999 -80.999s-22.666 -55.167 -39.999 -79.5s-38 -44.5 -62 -60.5s-50.667 -24 -80 -24h-609v193h504c9.33301 0 17.833 5.66699 25.5 17s13.167 22.666 16.5 33.999h-392c-28.667 0 -54.834 6.16699 -78.501 18.5
s-44 28.5 -61 48.5s-30.167 42.833 -39.5 68.5s-14 51.5 -14 77.5v4c0 24 5.33301 48 16 72s25 45.833 43 65.5s38.667 35.667 62 48s48 18.5 74 18.5h453c29.333 0 56 -8 80 -24s44.667 -36.167 62 -60.5s30.666 -50.833 39.999 -79.5s14 -55.667 14 -81v-175z
M619.001 417.001c-1.33301 5.33301 -3.33008 11.166 -5.99707 17.499s-5.83398 12.333 -9.50098 18s-7.83398 10.334 -12.501 14.001s-9.66699 5.5 -15 5.5h-246c-11.333 0 -21.333 -8 -30 -24c1.33301 -11.333 4.66602 -19.333 9.99902 -24s9.33301 -7 12 -7h297z" />
    <glyph glyph-name="FL003Ah" unicode=":" horiz-adv-x="322" 
d="M33 193h256v-193h-256v193zM33 473h256v-193h-256v193z" />
    <glyph glyph-name="FL003Bh" unicode=";" horiz-adv-x="323" 
d="M34 473h256v-193h-256v193zM290 193v-193l-257 -143v336h257z" />
    <glyph glyph-name="FL003Ch" unicode="&#x3c;" horiz-adv-x="609" 
d="M20 332l276 -332h293l-276 332l276 333h-292z" />
    <glyph glyph-name="FL003Dh" unicode="=" horiz-adv-x="564" 
d="M531 364h-498v171h498v-171zM531 134h-498v171h498v-171z" />
    <glyph glyph-name="FL003Eh" unicode="&#x3e;" horiz-adv-x="609" 
d="M589 332l-276 -332h-293l276 332l-276 333h292z" />
    <glyph glyph-name="FL003Fh" unicode="?" horiz-adv-x="873" 
d="M692 249l-576.002 -0.998047c0 24.667 2.16699 45.334 6.5 62.001s11.333 31.167 21 43.5s22.334 23.166 38.001 32.499s34.834 19 57.501 29c7.33301 3.33301 17.333 5.66602 30 6.99902s22.667 2 30 2h267c1.33301 0 3.66602 2.16699 6.99902 6.5
s5.66602 7.83301 6.99902 10.5v4c0 4 -2.16699 9.66699 -6.5 17s-9.16602 11 -14.499 11h-526v192h617c28.667 0 54.667 -6 78 -18s43.333 -28 60 -48s29.5 -42.5 38.5 -67.5s13.5 -50.5 13.5 -76.5c0 -20 -1.5 -37.833 -4.5 -53.5s-8 -30.334 -15 -44.001
s-15.833 -26.667 -26.5 -39s-23.667 -25.166 -39 -38.499c-2.66699 -2.66699 -6.66699 -5.83398 -12 -9.50098s-11.166 -7 -17.499 -10s-12.5 -5.66699 -18.5 -8s-11 -3.5 -15 -3.5zM115.998 193.002h256v-193h-256v193z" />
    <glyph glyph-name="FL0040h" unicode="@" horiz-adv-x="1086" 
d="M1053 492v-95.998c0 -25.333 -4.66699 -51.5 -14 -78.5s-22.666 -51.5 -39.999 -73.5s-38 -40.167 -62 -54.5s-50.667 -21.5 -80 -21.5h-427c-14.667 0 -28 4 -40 12s-22.333 18.167 -31 30.5s-15.334 25.666 -20.001 39.999s-7 27.833 -7 40.5v88
c0 12.667 2.33301 26.167 7 40.5s11.334 27.5 20.001 39.5s19 22 31 30s25.333 12 40 12h226c14 0 27 -2.66699 39 -8s22.333 -12.333 31 -21s15.5 -18.667 20.5 -30s7.5 -23 7.5 -35v-107c6 0.666992 11.667 3.83398 17 9.50098s10 12.167 14 19.5s7 14.833 9 22.5
s3 13.5 3 17.5v107c0 4 -1.16699 9.83301 -3.5 17.5s-5.5 15.167 -9.5 22.5s-8.66699 13.833 -14 19.5s-11.333 8.5 -18 8.5h-418c-6.66699 0 -12.667 -2.83301 -18 -8.5s-10 -12.167 -14 -19.5s-7.16699 -14.833 -9.5 -22.5s-3.5 -13.5 -3.5 -17.5v-285
c0 -4 1.16699 -9.83301 3.5 -17.5s5.5 -15.334 9.5 -23.001s8.66699 -14.334 14 -20.001s11.333 -8.5 18 -8.5h464v-192h-569c-29.333 0 -56 8 -80 24s-44.667 36.167 -62 60.5s-30.666 50.833 -39.999 79.5s-14 55.667 -14 81v317c0 25.333 4.66699 52.333 14 81
s22.666 55.167 39.999 79.5s38 44.5 62 60.5s50.667 24 80 24h628c29.333 0 56 -8 80 -24s44.667 -36.167 62 -60.5s30.666 -50.833 39.999 -79.5s14 -55.667 14 -81zM584 352.002c0 4 -1 8 -3 12s-4.33301 6 -7 6h-62c-3.33301 0 -6 -2.33301 -8 -7s-3 -8 -3 -10v-36
c0 -2 1 -5.33301 3 -10s4.66699 -7 8 -7h62c2.66699 0 5 2 7 6s3 8 3 12v34z" />
    <glyph glyph-name="FL0041h" unicode="A" horiz-adv-x="1106" 
d="M1073 193l-0.00195312 -193h-163l-145 168v-168h-561c-42 20.667 -76.833 45 -104.5 73s-52.5 58 -74.5 90c0 4.66699 0.333008 9 1 13s2.33398 8.66699 5.00098 14l324 383c14.667 14.667 28.834 27.667 42.501 39s28 20.833 43 28.5s31 13.5 48 17.5s36.167 6 57.5 6
c40 0 77 -7.66699 111 -23s63.667 -38 89 -68zM745.998 193l-180.002 214l-2 2c-3.33301 3.33301 -5.66602 5.33301 -6.99902 6s-4.66602 1 -9.99902 1c-2.66699 0 -5.66699 -0.5 -9 -1.5s-6.33301 -2.83301 -9 -5.5l-185 -216h402z" />
    <glyph glyph-name="FL0042h" unicode="B" horiz-adv-x="906" 
d="M33 0v665h655c28.667 0 54.834 -6.16699 78.501 -18.5s43.667 -28.333 60 -48s29 -42 38 -67s13.5 -50.5 13.5 -76.5c0 -25.333 -4.5 -48.5 -13.5 -69.5s-19.5 -38.833 -31.5 -53.5c12 -14.667 22.5 -32.5 31.5 -53.5s13.5 -43.833 13.5 -68.5
c0 -26 -4.5 -51.5 -13.5 -76.5s-21.667 -47.333 -38 -67s-36.333 -35.667 -60 -48s-49.834 -18.5 -78.501 -18.5h-655zM596 193c6 0 11 3.66699 15 11s6 13 6 17c0 6.66699 -2 13.167 -6 19.5s-8.66699 10.5 -14 12.5h-160l-152 114v-174h311zM285 473v-57h307
c6.66699 1.33301 12.5 4.5 17.5 9.5s7.5 11.167 7.5 18.5c0 4 -2 9.66699 -6 17s-9 11.333 -15 12h-311z" />
    <glyph glyph-name="FL0043h" unicode="C" 
d="M33 420c0 25.333 4.66602 52.332 13.999 80.999s22.666 55.167 39.999 79.5s38 44.5 62 60.5s50.667 24 80 24h453c28 0 53.833 -7.16699 77.5 -21.5s44.334 -32.5 62.001 -54.5s31.5 -46.167 41.5 -72.5s15 -51.5 15 -75.5v-17h-259
c-3.33301 12.667 -8.5 23.834 -15.5 33.501s-14.833 14.5 -23.5 14.5h-246c-6.66699 0 -12.667 -2.83301 -18 -8.5s-10 -12.167 -14 -19.5s-7.16699 -14.833 -9.5 -22.5s-3.5 -13.5 -3.5 -17.5v-143c0 -4 1.16699 -9.83301 3.5 -17.5s5.5 -15.167 9.5 -22.5
s8.66699 -13.833 14 -19.5s11.333 -8.5 18 -8.5h246c9.33301 0 17.833 5.83301 25.5 17.5s12.834 24.5 15.501 38.5h257v-25c0 -24 -5 -49.167 -15 -75.5s-23.833 -50.5 -41.5 -72.5s-38.334 -40.167 -62.001 -54.5s-49.5 -21.5 -77.5 -21.5h-453c-29.333 0 -56 8 -80 24
s-44.667 36.167 -62 60.5s-30.666 50.833 -39.999 79.5s-14 55.667 -14 81v175z" />
    <glyph glyph-name="FL0044h" unicode="D" 
d="M33 665h649c28 0 53.833 -7.16699 77.5 -21.5s44.334 -32.5 62.001 -54.5s31.5 -46.167 41.5 -72.5s15 -51.5 15 -75.5v-217c0 -24 -5 -49.167 -15 -75.5s-23.833 -50.5 -41.5 -72.5s-38.334 -40.167 -62.001 -54.5s-49.5 -21.5 -77.5 -21.5h-649v665zM285 472v-392h11
l140 112h39l-1 1h106c5.33301 0 10.5 2.16699 15.5 6.5s9.5 10 13.5 17s7.16699 14.667 9.5 23s3.5 16.5 3.5 24.5v137c0 8 -1.16699 16.167 -3.5 24.5s-5.5 16 -9.5 23s-8.5 12.667 -13.5 17s-10.167 6.5 -15.5 6.5h-295z" />
    <glyph glyph-name="FL0047h" unicode="E" horiz-adv-x="910" 
d="M33 245l0.00195312 175c0 25.333 4.66699 52.333 14 81s22.666 55.167 39.999 79.5s38 44.5 62 60.5s50.667 24 80 24h453c26 0 50.667 -6.16699 74 -18.5s44 -28.333 62 -48s32.333 -41.5 43 -65.5s16 -48 16 -72v-4c0 -26 -4.66699 -51.833 -14 -77.5
s-22.5 -48.5 -39.5 -68.5s-37.333 -36.167 -61 -48.5s-49.834 -18.5 -78.501 -18.5h-337l191 173h50c2.66699 0 6.66699 2.33301 12 7s8.66602 12.667 9.99902 24c-9.33301 16 -19.333 24 -30 24h-246c-6.66699 0 -12.667 -2.83301 -18 -8.5s-10 -12.167 -14 -19.5
s-7.16699 -14.833 -9.5 -22.5s-3.5 -13.5 -3.5 -17.5v-143c0 -4 1.16699 -9.83301 3.5 -17.5s5.5 -15.167 9.5 -22.5s8.66699 -13.833 14 -19.5s11.333 -8.5 18 -8.5h504v-193h-609c-29.333 0 -56 8 -80 24s-44.667 36.167 -62 60.5s-30.666 50.833 -39.999 79.5
s-14 55.667 -14 81z" />
    <glyph glyph-name="FL0066h" unicode="F" 
d="M692 187h-403v-187h-256v665h845v-241h-256v48h-333v-114h403v-171z" />
    <glyph glyph-name="FL0048h" unicode="G" horiz-adv-x="910" 
d="M33 420l0.00195312 -175.001c0 -25.333 4.66699 -52.333 14 -81s22.666 -55.167 39.999 -79.5s38 -44.5 62 -60.5s50.667 -24 80 -24h453c26 0 50.667 6.16699 74 18.5s44 28.333 62 48s32.333 41.5 43 65.5s16 48 16 72v4c0 26 -4.66699 51.5 -14 76.5
s-22.5 47.333 -39.5 67s-37.333 35.334 -61 47.001s-49.834 17.5 -78.501 17.5h-337l191 -168h50c2.66699 0 6.66699 -2.33301 12 -7s8.66602 -12.667 9.99902 -24c-9.33301 -16 -19.333 -24 -30 -24h-246c-6.66699 0 -12.667 2.83301 -18 8.5s-10 12.167 -14 19.5
s-7.16699 14.833 -9.5 22.5s-3.5 13.5 -3.5 17.5v143c0 4 1.16699 9.83301 3.5 17.5s5.5 15.167 9.5 22.5s8.66699 13.833 14 19.5s11.333 8.5 18 8.5h504v193h-609c-29.333 0 -56 -8 -80 -24s-44.667 -36.167 -62 -60.5s-30.666 -50.833 -39.999 -79.5s-14 -55.667 -14 -81
z" />
    <glyph glyph-name="FL0049h" unicode="H" horiz-adv-x="910" 
d="M621 665h256v-665h-256v228h-336v-228h-252v665h252v-245h336v245z" />
    <glyph glyph-name="FL004Bh" unicode="I" horiz-adv-x="912" 
d="M878 241l1 -241h-846v241h257v-48h38v279h-38v-48h-257v241h846v-241h-257v48h-38v-279h38v48h256z" />
    <glyph glyph-name="FL004Ah" unicode="J" 
d="M621 472h-154v-48h-256v241h667v-441c0 -24 -5 -49.167 -15 -75.5s-23.833 -50.5 -41.5 -72.5s-38.334 -40.167 -62.001 -54.5s-49.5 -21.5 -77.5 -21.5h-453c-29.333 0 -56 8 -80 24s-44.667 36.167 -62 60.5s-30.666 50.833 -39.999 79.5s-14 55.667 -14 81v56h256v-40
c0 -4 1.16699 -9.83301 3.5 -17.5s5.5 -15.167 9.5 -22.5s8.66699 -13.833 14 -19.5s11.333 -8.5 18 -8.5h246c5.33301 0 10.5 2.16699 15.5 6.5s9.5 10 13.5 17s7.16699 14.667 9.5 23s3.5 16.5 3.5 24.5v209z" />
    <glyph glyph-name="FL006Bh" unicode="K" 
d="M33 665l0.000976562 -665.002h252v363l4 1l147 -115h164c6.66699 -1.33301 12.5 -4.5 17.5 -9.5s7.5 -11.167 7.5 -18.5v-221h253v210c0 64.667 -18 114.334 -54 149.001s-89.333 52.334 -160 53.001l10 22c2 3.33301 6.66699 8.5 14 15.5l19 18.5
c3.33301 4.66699 8 8.5 14 11.5s11.333 5.16699 16 6.5h141v179h-334c-5.33301 0 -11.5 -2.33301 -18.5 -7s-13.833 -10 -20.5 -16s-12.834 -12.167 -18.501 -18.5s-9.83398 -11.166 -12.501 -14.499l-29.5 -34l-45 -52.5l-49 -57.5l-40.5 -48
c-1.33301 -1.33301 -2.16602 -2.33301 -2.49902 -3s-0.833008 -1.33398 -1.5 -2.00098h-21v253h-252z" />
    <glyph glyph-name="FL004Dh" unicode="L" 
d="M289 665v-472h333v56h256v-249h-845v665h256z" />
    <glyph glyph-name="FL004Eh" unicode="M" horiz-adv-x="1288" 
d="M516 0l255.999 0.00195312v404c0 4 1.16699 9.83301 3.5 17.5s5.5 15.167 9.5 22.5s8.66699 13.833 14 19.5s11.333 8.5 18 8.5h140c5.33301 0 10.5 -2.16699 15.5 -6.5s9.5 -10 13.5 -17s7.16699 -14.667 9.5 -23s3.5 -16.5 3.5 -24.5v-401h256v440
c0 24 -5 49.167 -15 75.5s-23.833 50.666 -41.5 72.999s-38.334 40.666 -62.001 54.999s-49.5 21.5 -77.5 21.5h-339c-6 0 -12.667 -1.66699 -20 -5s-14.666 -7.5 -21.999 -12.5s-14 -10.167 -20 -15.5s-10.667 -10 -14 -14l-16.5 14
c-6.33301 5.33301 -12.833 10.5 -19.5 15.5s-13.5 9.16699 -20.5 12.5s-13.5 5 -19.5 5h-339c-29.333 0 -56 -8 -80 -24s-44.667 -36.167 -62 -60.5s-30.666 -50.833 -39.999 -79.5s-14 -55.667 -14 -81v-420h256v404c0 4 1.16699 9.83301 3.5 17.5s5.5 15.167 9.5 22.5
s8.66699 13.833 14 19.5s11.333 8.5 18 8.5h140c5.33301 0 10.5 -2.16699 15.5 -6.5s9.5 -10 13.5 -17s7.16699 -14.667 9.5 -23s3.5 -16.5 3.5 -24.5v-401z" />
    <glyph glyph-name="FL004Fh" unicode="N" 
d="M33 665h208c21.333 0 43.333 -6.16699 66 -18.5s48.5 -31 77.5 -56s62.667 -56 101 -93l136.5 -129.5v297h256v-502c-18 -30 -40.167 -59.5 -66.5 -88.5s-60.5 -53.833 -102.5 -74.5h-51l-369 348v-348h-256v665z" />
    <glyph glyph-name="FL0050h" unicode="O" horiz-adv-x="947" 
d="M33 420c0 25.333 4.66699 52.333 14 81s22.666 55.167 39.999 79.5s38 44.5 62 60.5s50.667 24 80 24h489c28 0 53.833 -7.16699 77.5 -21.5s44.334 -32.5 62.001 -54.5s31.5 -46.167 41.5 -72.5s15 -51.5 15 -75.5v-217c0 -24 -5 -49.167 -15 -75.5
s-23.833 -50.5 -41.5 -72.5s-38.334 -40.167 -62.001 -54.5s-49.5 -21.5 -77.5 -21.5h-489c-29.333 0 -56 8 -80 24s-44.667 36.167 -62 60.5s-30.666 50.833 -39.999 79.5s-14 55.667 -14 81v175zM658 264v137c0 8 -1.16699 16.167 -3.5 24.5s-5.5 16 -9.5 23
s-8.5 12.667 -13.5 17s-10.167 6.5 -15.5 6.5h-282c-6.66699 0 -12.667 -2.83301 -18 -8.5s-10 -12.167 -14 -19.5s-7.16699 -14.833 -9.5 -22.5s-3.5 -13.5 -3.5 -17.5v-143c0 -4 1.16699 -9.83301 3.5 -17.5s5.5 -15.167 9.5 -22.5s8.66699 -13.833 14 -19.5
s11.333 -8.5 18 -8.5h282c5.33301 0 10.5 2.16699 15.5 6.5s9.5 10 13.5 17s7.16699 14.667 9.5 23s3.5 16.5 3.5 24.5z" />
    <glyph glyph-name="FL0051h" unicode="P" horiz-adv-x="906" 
d="M33 0l252.001 -0.00195312v221h389c28 6 54.333 14.833 79 26.5s46.167 26.334 64.5 44.001s33 38.667 44 63s16.5 52.5 16.5 84.5c0 26 -4.5 52.333 -13.5 79s-21.667 50.834 -38 72.501s-36.333 39.5 -60 53.5s-49.834 21 -78.501 21h-655v-665zM285.001 471.998h313
c6 0 11 -4.16699 15 -12.5s6 -14.5 6 -18.5c0 -7.33301 -2.5 -13.5 -7.5 -18.5s-10.833 -8.16699 -17.5 -9.5h-158l-140 -112h-11v171z" />
    <glyph glyph-name="FL0055h" unicode="Q" horiz-adv-x="976" 
d="M33 420c0 25.333 4.66602 52.333 13.999 81s22.666 55.167 39.999 79.5s38 44.5 62 60.5s50.667 24 80 24h453c28 0 53.833 -7.16699 77.5 -21.5s44.334 -32.5 62.001 -54.5s31.5 -46.167 41.5 -72.5s15 -51.5 15 -75.5v-217c0 -15.333 -2 -30.333 -6 -45h85v-179h-728
c-29.333 0 -56 8 -80 24s-44.667 36.167 -62 60.5s-30.666 50.833 -39.999 79.5s-14 55.667 -14 81v175zM351.999 266v36h270v99c0 8 -1.16699 16.167 -3.5 24.5s-5.5 16 -9.5 23s-8.5 12.667 -13.5 17s-10.167 6.5 -15.5 6.5h-246c-6.66699 0 -12.667 -2.83301 -18 -8.5
s-10 -12.167 -14 -19.5s-7.16699 -14.833 -9.5 -22.5s-3.5 -13.5 -3.5 -17.5v-143c0 -4 1.16699 -9.83301 3.5 -17.5s5.5 -15.167 9.5 -22.5s8.66699 -13.833 14 -19.5s11.333 -8.5 18 -8.5h89l-36.5 44.5c-11 13 -18.833 22.5 -23.5 28.5h-11z" />
    <glyph glyph-name="FL0052h" unicode="R" horiz-adv-x="938" 
d="M33 0l251.999 -0.000976562v266h11c6 -8 17.167 -22 33.5 -42l52.5 -64l53.5 -63.5l35.5 -40.5c2.66699 -3.33301 6.83398 -8.16602 12.501 -14.499s11.834 -12.5 18.501 -18.5s13.5 -11.333 20.5 -16s13.167 -7 18.5 -7h379v179h-183c-4.66699 1.33301 -10 3.5 -16 6.5
s-10.667 6.83301 -14 11.5l-19 18.5c-7.33301 7 -12 12.167 -14 15.5c28 6 54.333 14.333 79 25s46.167 24.167 64.5 40.5s33 36.166 44 59.499s16.5 51 16.5 83c0 26 -4.5 52.333 -13.5 79s-21.667 50.834 -38 72.501s-36.333 39.5 -60 53.5s-49.834 21 -78.501 21h-655
v-665zM285.999 472.999h312c6 0 11 -4.33301 15 -13s6 -15 6 -19c0 -7.33301 -2.5 -13.5 -7.5 -18.5s-10.833 -8.16699 -17.5 -9.5h-158l-140 -112l-10 1v171z" />
    <glyph glyph-name="FL0053h" unicode="S" horiz-adv-x="958" 
d="M33 193v-192.997h742c20.667 0 40.5 7.16699 59.5 21.5s35.5 31.666 49.5 51.999s25.167 42 33.5 65s12.5 43.5 12.5 61.5c0 48.667 -8.83301 90.167 -26.5 124.5s-49.167 61.166 -94.5 80.499c-3.33301 1.33301 -8.33301 3.16602 -15 5.49902s-13.334 4.5 -20.001 6.5
s-12.667 3.66699 -18 5s-8.33301 2 -9 2h-399c-1.33301 0 -3.66602 2.16699 -6.99902 6.5s-5.66602 7.83301 -6.99902 10.5v4c0 4 2.16699 9.66699 6.5 17s9.16602 11 14.499 11h532v192h-623c-28.667 0 -54.667 -6 -78 -18s-43.333 -28 -60 -48s-29.5 -42.5 -38.5 -67.5
s-13.5 -50.5 -13.5 -76.5c0 -20 1.5 -37.833 4.5 -53.5s8 -30.334 15 -44.001s15.833 -26.667 26.5 -39s23.667 -25.166 39 -38.499c2.66699 -2.66699 6.66699 -5.83398 12 -9.50098s11.166 -7 17.499 -10s12.5 -5.66699 18.5 -8s11 -3.5 15 -3.5h420
c0.666992 0 3.33398 -0.833008 8.00098 -2.5s7.66699 -3.5 9 -5.5c2 -1.33301 3.83301 -4 5.5 -8s2.83398 -6.66699 3.50098 -8c0.666992 0.666992 1.16699 0 1.5 -2s0.5 -3.66699 0.5 -5c-0.666992 -5.33301 -1.83398 -10.166 -3.50098 -14.499
s-5.16699 -7.83301 -10.5 -10.5h-623z" />
    <glyph glyph-name="FL0075h" unicode="T" horiz-adv-x="912" 
d="M584 0h-256v472h-38v-48h-257v241h846v-241h-257v48h-38v-472z" />
    <glyph glyph-name="FL0056h" unicode="U" 
d="M33 665v-420c0 -25.333 4.66699 -52.333 14 -81s22.666 -55.167 39.999 -79.5s38 -44.5 62 -60.5s50.667 -24 80 -24h453c28 0 53.833 7.16699 77.5 21.5s44.334 32.5 62.001 54.5s31.5 46.167 41.5 72.5s15 51.5 15 75.5v441h-256v-401
c0 -8 -1.16699 -16.167 -3.5 -24.5s-5.5 -16 -9.5 -23s-8.5 -12.667 -13.5 -17s-10.167 -6.5 -15.5 -6.5h-246c-6.66699 0 -12.667 2.83301 -18 8.5s-10 12.167 -14 19.5s-7.16699 14.833 -9.5 22.5s-3.5 13.5 -3.5 17.5v404h-256z" />
    <glyph glyph-name="FL0057h" unicode="V" horiz-adv-x="1086" 
d="M524 259l-233.003 406h-272l324 -574c12 -14 25.333 -26.5 40 -37.5s30.334 -20.833 47.001 -29.5c15.333 -8 31.833 -14 49.5 -18s37.834 -6 60.501 -6c40 0 77.5 8 112.5 24s65.167 38.333 90.5 67l324 574h-272l-233 -406c-5.33301 -8 -11.666 -12 -18.999 -12
c-5.33301 0 -8.83301 1 -10.5 3s-4.5 5 -8.5 9z" />
    <glyph glyph-name="FL0058h" unicode="W" horiz-adv-x="1238" 
d="M491 665l0.00195312 -415h-88c-5.33301 0 -9.33301 0.833008 -12 2.5s-3.66699 2.5 -3 2.5l-4 4l-93 406h-272l137 -543c19.333 -36.667 47.666 -66.167 84.999 -88.5s80.333 -33.5 129 -33.5h498c46 0 85.667 8 119 24s58.666 40.333 75.999 73l156 568h-272l-93 -406
l-4 -5c-2 -1.33301 -3.83301 -2.33301 -5.5 -3s-4.5 -1 -8.5 -1h-89v415h-256z" />
    <glyph glyph-name="FL005Bh" unicode="X" horiz-adv-x="947" 
d="M580 332l147 -135.001c3.33301 -4.66699 8 -8.5 14 -11.5s11.333 -5.16699 16 -6.5h157v-179h-298c-5.33301 0 -12 2 -20 6s-16 8.66699 -24 14s-15.333 10.833 -22 16.5s-11.334 10.167 -14.001 13.5c-2 2 -5.5 4.83301 -10.5 8.5l-17.5 13
c-6.66699 5 -13.167 10.333 -19.5 16s-11.5 10.834 -15.5 15.501c-4 -4.66699 -9.16699 -10.167 -15.5 -16.5l-19 -19l-16.5 -17c-4.66699 -5 -7.66699 -8.5 -9 -10.5c-2.66699 -3.33301 -7.16699 -7.33301 -13.5 -12s-13.333 -9 -21 -13s-15.334 -7.5 -23.001 -10.5
s-14.167 -4.5 -19.5 -4.5h-303v179h153c4.66699 1.33301 10 3.5 16 6.5s10.667 6.83301 14 11.5l149 135l-148 137c-5.33301 6 -10.333 10.167 -15 12.5s-9.66699 3.83301 -15 4.5h-154v179h304c4.66699 0 11 -2 19 -6s16 -8.66699 24 -14s15.333 -10.833 22 -16.5
s11.334 -10.167 14.001 -13.5c1.33301 -2 4.33301 -5 9 -9l15.5 -13.5l17.5 -15.5c6 -5.33301 11 -10.333 15 -15c4 4.66699 9.16699 9.66699 15.5 15s12.833 10.5 19.5 15.5l17.5 13.5c5 4 8.5 7 10.5 9c2.66699 3.33301 7.33398 7.83301 14.001 13.5s14 11.167 22 16.5
s16 10 24 14s14.667 6 20 6h298v-179h-157c-4.66699 -1.33301 -10 -3.5 -16 -6.5s-10.667 -6.83301 -14 -11.5z" />
    <glyph glyph-name="FL0059h" unicode="Y" horiz-adv-x="916" 
d="M627 665l-0.000976562 -240.999h-319c-1.33301 0 -4.66602 3.16699 -9.99902 9.5s-8.66602 10.833 -9.99902 13.5v218h-255v-210c0 -20 1.5 -37.833 4.5 -53.5s8 -30.334 15 -44.001s15.833 -26.667 26.5 -39s23.667 -25.166 39 -38.499
c2.66699 -2.66699 6.66699 -5.83398 12 -9.50098s11.166 -7 17.499 -10s12.5 -5.66699 18.5 -8s11 -3.5 15 -3.5h446v-33c-0.666992 -3.33301 -2.66699 -6.83301 -6 -10.5s-7.33301 -7.83398 -12 -12.501h-575v-193h694c20.667 0 40.334 7 59.001 21s35.167 31.333 49.5 52
s25.666 42.334 33.999 65.001s12.5 42.667 12.5 60v467h-256z" />
    <glyph glyph-name="FL005Ah" unicode="Z" horiz-adv-x="912" 
d="M33 169v-169h845v241h-256v-48h-182l439 303v169h-845v-241h256v48h182z" />
    <glyph glyph-name="FL005Eh" unicode="[" horiz-adv-x="512" 
d="M33 -71h446v193h-190v422h190v193h-446v-808z" />
    <glyph glyph-name="FL005Ch" unicode="\" horiz-adv-x="910" 
d="M877 0h-293l-551 665h292z" />
    <glyph glyph-name="FL005Dh" unicode="]" horiz-adv-x="512" 
d="M479 -71h-446v193h190v422h-190v193h446v-808z" />
    <glyph glyph-name="FL005Fh" unicode="^" horiz-adv-x="1114" 
d="M576 406l233.002 -406h272l-324 574c-12 14 -25.333 26.5 -40 37.5s-30.334 20.833 -47.001 29.5c-15.333 8 -31.833 14 -49.5 18s-37.834 6 -60.501 6c-40 0 -77.5 -8 -112.5 -24s-65.167 -38.333 -90.5 -67l-324 -574h272l233 406c4.66699 8 11 12 19 12
c5.33301 0 8.83301 -1 10.5 -3s4.5 -5 8.5 -9z" />
    <glyph glyph-name="FL0060h" unicode="_" horiz-adv-x="630" 
d="M597 0h-564v171h564v-171z" />
    <glyph glyph-name="FL0061h" unicode="`" horiz-adv-x="305" 
d="M20 732h204l61 -141h-197z" />
    <glyph glyph-name="a" unicode="a" horiz-adv-x="1106" 
d="M33 193l0.00195312 -193h163l145 168v-168h561c42 20.667 76.833 45 104.5 73s52.5 58 74.5 90c0 4.66699 -0.333008 9 -1 13s-2.33398 8.66699 -5.00098 14l-324 383c-14.667 14.667 -28.834 27.667 -42.501 39s-28 20.833 -43 28.5s-31 13.5 -48 17.5
s-36.167 6 -57.5 6c-40 0 -77 -7.66699 -111 -23s-63.667 -38 -89 -68zM360.002 193l180.002 214l2 2c3.33301 3.33301 5.66602 5.33301 6.99902 6s4.66602 1 9.99902 1c2.66699 0 5.66699 -0.5 9 -1.5s6.33301 -2.83301 9 -5.5l185 -216h-402z" />
    <glyph glyph-name="FL0062h" unicode="b" horiz-adv-x="906" 
d="M33 0v665h655c28.667 0 54.834 -6.16699 78.501 -18.5s43.667 -28.333 60 -48s29 -42 38 -67s13.5 -50.5 13.5 -76.5c0 -25.333 -4.5 -48.5 -13.5 -69.5s-19.5 -38.833 -31.5 -53.5c12 -14.667 22.5 -32.5 31.5 -53.5s13.5 -43.833 13.5 -68.5
c0 -26 -4.5 -51.5 -13.5 -76.5s-21.667 -47.333 -38 -67s-36.333 -35.667 -60 -48s-49.834 -18.5 -78.501 -18.5h-655zM596 193c6 0 11 3.66699 15 11s6 13 6 17c0 6.66699 -2 13.167 -6 19.5s-8.66699 10.5 -14 12.5h-160l-152 114v-174h311zM285 473v-57h307
c6.66699 1.33301 12.5 4.5 17.5 9.5s7.5 11.167 7.5 18.5c0 4 -2 9.66699 -6 17s-9 11.333 -15 12h-311z" />
    <glyph glyph-name="FL0063h" unicode="c" 
d="M33 420c0 25.333 4.66602 52.332 13.999 80.999s22.666 55.167 39.999 79.5s38 44.5 62 60.5s50.667 24 80 24h453c28 0 53.833 -7.16699 77.5 -21.5s44.334 -32.5 62.001 -54.5s31.5 -46.167 41.5 -72.5s15 -51.5 15 -75.5v-17h-259
c-3.33301 12.667 -8.5 23.834 -15.5 33.501s-14.833 14.5 -23.5 14.5h-246c-6.66699 0 -12.667 -2.83301 -18 -8.5s-10 -12.167 -14 -19.5s-7.16699 -14.833 -9.5 -22.5s-3.5 -13.5 -3.5 -17.5v-143c0 -4 1.16699 -9.83301 3.5 -17.5s5.5 -15.167 9.5 -22.5
s8.66699 -13.833 14 -19.5s11.333 -8.5 18 -8.5h246c9.33301 0 17.833 5.83301 25.5 17.5s12.834 24.5 15.501 38.5h257v-25c0 -24 -5 -49.167 -15 -75.5s-23.833 -50.5 -41.5 -72.5s-38.334 -40.167 -62.001 -54.5s-49.5 -21.5 -77.5 -21.5h-453c-29.333 0 -56 8 -80 24
s-44.667 36.167 -62 60.5s-30.666 50.833 -39.999 79.5s-14 55.667 -14 81v175z" />
    <glyph glyph-name="FL0064h" unicode="d" 
d="M33 665h649c28 0 53.833 -7.16699 77.5 -21.5s44.334 -32.5 62.001 -54.5s31.5 -46.167 41.5 -72.5s15 -51.5 15 -75.5v-217c0 -24 -5 -49.167 -15 -75.5s-23.833 -50.5 -41.5 -72.5s-38.334 -40.167 -62.001 -54.5s-49.5 -21.5 -77.5 -21.5h-649v665zM285 472v-392h11
l140 112h39l-1 1h106c5.33301 0 10.5 2.16699 15.5 6.5s9.5 10 13.5 17s7.16699 14.667 9.5 23s3.5 16.5 3.5 24.5v137c0 8 -1.16699 16.167 -3.5 24.5s-5.5 16 -9.5 23s-8.5 12.667 -13.5 17s-10.167 6.5 -15.5 6.5h-295z" />
    <glyph glyph-name="FL0065h" unicode="e" 
d="M561 249h-272v-56h333v56h256v-249h-845v665h845v-241h-256v48h-333v-52h272v-171z" />
    <glyph glyph-name="FL0046h" unicode="f" 
d="M561 249h-272v-249h-256v665h845v-241h-256v48h-333v-52h272v-171z" />
    <glyph glyph-name="FL0067h" unicode="g" horiz-adv-x="910" 
d="M33 420l0.00195312 -175.001c0 -25.333 4.66699 -52.333 14 -81s22.666 -55.167 39.999 -79.5s38 -44.5 62 -60.5s50.667 -24 80 -24h453c26 0 50.667 6.16699 74 18.5s44 28.333 62 48s32.333 41.5 43 65.5s16 48 16 72v4c0 26 -4.66699 51.5 -14 76.5
s-22.5 47.333 -39.5 67s-37.333 35.334 -61 47.001s-49.834 17.5 -78.501 17.5h-337l191 -168h50c2.66699 0 6.66699 -2.33301 12 -7s8.66602 -12.667 9.99902 -24c-9.33301 -16 -19.333 -24 -30 -24h-246c-6.66699 0 -12.667 2.83301 -18 8.5s-10 12.167 -14 19.5
s-7.16699 14.833 -9.5 22.5s-3.5 13.5 -3.5 17.5v143c0 4 1.16699 9.83301 3.5 17.5s5.5 15.167 9.5 22.5s8.66699 13.833 14 19.5s11.333 8.5 18 8.5h504v193h-609c-29.333 0 -56 -8 -80 -24s-44.667 -36.167 -62 -60.5s-30.666 -50.833 -39.999 -79.5s-14 -55.667 -14 -81
z" />
    <glyph glyph-name="FL00BAh" unicode="h" horiz-adv-x="910" 
d="M621 665h256v-665h-256v228h-336v-228h-252v665h252v-357h11l140 112h185v245z" />
    <glyph glyph-name="i" unicode="i" horiz-adv-x="322" 
d="M33 665v-665h256v665h-256z" />
    <glyph glyph-name="FL006Ah" unicode="j" 
d="M621 472h-78v-48h-256v241h591v-441c0 -24 -5 -49.167 -15 -75.5s-23.833 -50.5 -41.5 -72.5s-38.334 -40.167 -62.001 -54.5s-49.5 -21.5 -77.5 -21.5h-453c-29.333 0 -56 8 -80 24s-44.667 36.167 -62 60.5s-30.666 50.833 -39.999 79.5s-14 55.667 -14 81v56h256v-40
c0 -4 1.16699 -9.83301 3.5 -17.5s5.5 -15.167 9.5 -22.5s8.66699 -13.833 14 -19.5s11.333 -8.5 18 -8.5h246c5.33301 0 10.5 2.16699 15.5 6.5s9.5 10 13.5 17s7.16699 14.667 9.5 23s3.5 16.5 3.5 24.5v209z" />
    <glyph glyph-name="FL0072h" unicode="k" horiz-adv-x="909" 
d="M542 332l129.001 -134.999c3.33301 -4.66699 8 -8.5 14 -11.5s11.333 -5.16699 16 -6.5h175v-179h-298c-16.667 0 -29.167 0.5 -37.5 1.5s-15.333 3 -21 6s-11.334 7.33301 -17.001 13s-14.167 13.167 -25.5 22.5l-192 206v-249h-252v665h252v-245l188 202l19.5 20.5
c5.66699 5.66699 12.167 10.167 19.5 13.5s16 5.66602 26 6.99902s23.333 2 40 2h298v-179h-175c-4.66699 -1.33301 -10 -3.5 -16 -6.5s-10.667 -6.83301 -14 -11.5z" />
    <glyph glyph-name="FL006Ch" unicode="l" horiz-adv-x="841" 
d="M289 665v-472h263v56h256v-249h-775v665h256z" />
    <glyph glyph-name="FL006Dh" unicode="m" horiz-adv-x="1113" 
d="M537 259l-248.001 406h-256v-665h256v209l67 -118c12 -14 25.333 -26.5 40 -37.5s30.334 -20.833 47.001 -29.5c15.333 -8 31.833 -14 49.5 -18s37.834 -6 60.501 -6c40 0 77.5 8 112.5 24s65.167 38.333 90.5 67l68 120v-211h256v665h-258l-249 -408
c-4.66699 -4.66699 -10.334 -7 -17.001 -7c-3.33301 0 -6.83301 0.5 -10.5 1.5s-5.5 1.83301 -5.5 2.5z" />
    <glyph glyph-name="FL006Eh" unicode="n" 
d="M33 665h208c21.333 0 43.333 -6.16699 66 -18.5s48.5 -31 77.5 -56s62.667 -56 101 -93l136.5 -129.5v297h256v-502c-18 -30 -40.167 -59.5 -66.5 -88.5s-60.5 -53.833 -102.5 -74.5h-51l-369 348v-348h-256v665z" />
    <glyph glyph-name="FL006Fh" unicode="o" 
d="M33 420c0 25.333 4.66699 52.333 14 81s22.666 55.167 39.999 79.5s38 44.5 62 60.5s50.667 24 80 24h453c28 0 53.833 -7.16699 77.5 -21.5s44.334 -32.5 62.001 -54.5s31.5 -46.167 41.5 -72.5s15 -51.5 15 -75.5v-217c0 -24 -5 -49.167 -15 -75.5
s-23.833 -50.5 -41.5 -72.5s-38.334 -40.167 -62.001 -54.5s-49.5 -21.5 -77.5 -21.5h-453c-29.333 0 -56 8 -80 24s-44.667 36.167 -62 60.5s-30.666 50.833 -39.999 79.5s-14 55.667 -14 81v175zM622 264v137c0 8 -1.16699 16.167 -3.5 24.5s-5.5 16 -9.5 23
s-8.5 12.667 -13.5 17s-10.167 6.5 -15.5 6.5h-246c-6.66699 0 -12.667 -2.83301 -18 -8.5s-10 -12.167 -14 -19.5s-7.16699 -14.833 -9.5 -22.5s-3.5 -13.5 -3.5 -17.5v-143c0 -4 1.16699 -9.83301 3.5 -17.5s5.5 -15.167 9.5 -22.5s8.66699 -13.833 14 -19.5
s11.333 -8.5 18 -8.5h246c5.33301 0 10.5 2.16699 15.5 6.5s9.5 10 13.5 17s7.16699 14.667 9.5 23s3.5 16.5 3.5 24.5z" />
    <glyph glyph-name="FL0070h" unicode="p" horiz-adv-x="906" 
d="M33 0l252.001 -0.00195312v221h389c28 6 54.333 14.833 79 26.5s46.167 26.334 64.5 44.001s33 38.667 44 63s16.5 52.5 16.5 84.5c0 26 -4.5 52.333 -13.5 79s-21.667 50.834 -38 72.501s-36.333 39.5 -60 53.5s-49.834 21 -78.501 21h-655v-665zM285.001 471.998h313
c6 0 11 -4.16699 15 -12.5s6 -14.5 6 -18.5c0 -7.33301 -2.5 -13.5 -7.5 -18.5s-10.833 -8.16699 -17.5 -9.5h-158l-140 -112h-11v171z" />
    <glyph glyph-name="FL0071h" unicode="q" horiz-adv-x="976" 
d="M33 420c0 25.333 4.66602 52.333 13.999 81s22.666 55.167 39.999 79.5s38 44.5 62 60.5s50.667 24 80 24h453c28 0 53.833 -7.16699 77.5 -21.5s44.334 -32.5 62.001 -54.5s31.5 -46.167 41.5 -72.5s15 -51.5 15 -75.5v-217c0 -15.333 -2 -30.333 -6 -45h85v-179h-728
c-29.333 0 -56 8 -80 24s-44.667 36.167 -62 60.5s-30.666 50.833 -39.999 79.5s-14 55.667 -14 81v175zM351.999 266v36h270v99c0 8 -1.16699 16.167 -3.5 24.5s-5.5 16 -9.5 23s-8.5 12.667 -13.5 17s-10.167 6.5 -15.5 6.5h-246c-6.66699 0 -12.667 -2.83301 -18 -8.5
s-10 -12.167 -14 -19.5s-7.16699 -14.833 -9.5 -22.5s-3.5 -13.5 -3.5 -17.5v-143c0 -4 1.16699 -9.83301 3.5 -17.5s5.5 -15.167 9.5 -22.5s8.66699 -13.833 14 -19.5s11.333 -8.5 18 -8.5h89l-36.5 44.5c-11 13 -18.833 22.5 -23.5 28.5h-11z" />
    <glyph glyph-name="r" unicode="r" 
d="M33 0l251.999 -0.000976562v266h11c6 -8 17.167 -22 33.5 -42l52.5 -64l53.5 -63.5l35.5 -40.5c2.66699 -3.33301 6.83398 -8.16602 12.501 -14.499s11.834 -12.5 18.501 -18.5s13.5 -11.333 20.5 -16s13.167 -7 18.5 -7h337v179h-141c-4.66699 1.33301 -10 3.5 -16 6.5
s-10.667 6.83301 -14 11.5l-19 18.5c-7.33301 7 -12 12.167 -14 15.5c28 6 54.333 14.333 79 25s46.167 24.167 64.5 40.5s33 36.166 44 59.499s16.5 51 16.5 83c0 26 -4.5 52.333 -13.5 79s-21.667 50.834 -38 72.501s-36.333 39.5 -60 53.5s-49.834 21 -78.501 21h-655
v-665zM284.999 472.999h312c6 0 11 -4.33301 15 -13s6 -15 6 -19c0 -7.33301 -2.5 -13.5 -7.5 -18.5s-10.833 -8.16699 -17.5 -9.5h-157l-140 -112l-11 1v171z" />
    <glyph glyph-name="s" unicode="s" horiz-adv-x="912" 
d="M34 193l-0.000976562 -192.997h694c20.667 0 40.5 7.16699 59.5 21.5s35.5 31.666 49.5 51.999s25.167 42 33.5 65s12.5 43.5 12.5 61.5c0 48.667 -9.33301 90.667 -28 126s-50.667 62.666 -96 81.999c-3.33301 1.33301 -8.16602 3 -14.499 5
s-12.666 3.83301 -18.999 5.5s-12 3 -17 4s-7.83301 1.5 -8.5 1.5h-393c-1.33301 0 -3.66602 2.16699 -6.99902 6.5s-5.66602 7.83301 -6.99902 10.5v4c0 4 2.16699 9.66699 6.5 17s9.16602 11 14.499 11h526v192h-617c-28.667 0 -54.667 -6 -78 -18s-43.333 -28 -60 -48
s-29.5 -42.5 -38.5 -67.5s-13.5 -50.5 -13.5 -76.5c0 -20 1.5 -37.833 4.5 -53.5s8 -30.334 15 -44.001s15.833 -26.667 26.5 -39s23.667 -25.166 39 -38.499c2.66699 -2.66699 6.66699 -5.83398 12 -9.50098s11.166 -7 17.499 -10s12.5 -5.66699 18.5 -8s11 -3.5 15 -3.5
h414c0.666992 0 3.66699 -1.33301 9 -4s8.66602 -5 9.99902 -7c3.33301 -2.66699 5.83301 -6.16699 7.5 -10.5s2.5 -7.5 2.5 -9.5c0 -6.66699 -5 -15 -15 -25h-575z" />
    <glyph glyph-name="FL0054h" unicode="t" 
d="M878 472h-254v-472h-256v472h-79v-48h-256v241h845v-193z" />
    <glyph glyph-name="u" unicode="u" 
d="M33 665v-420c0 -25.333 4.66699 -52.333 14 -81s22.666 -55.167 39.999 -79.5s38 -44.5 62 -60.5s50.667 -24 80 -24h453c28 0 53.833 7.16699 77.5 21.5s44.334 32.5 62.001 54.5s31.5 46.167 41.5 72.5s15 51.5 15 75.5v441h-256v-401
c0 -8 -1.16699 -16.167 -3.5 -24.5s-5.5 -16 -9.5 -23s-8.5 -12.667 -13.5 -17s-10.167 -6.5 -15.5 -6.5h-246c-6.66699 0 -12.667 2.83301 -18 8.5s-10 12.167 -14 19.5s-7.16699 14.833 -9.5 22.5s-3.5 13.5 -3.5 17.5v404h-256z" />
    <glyph glyph-name="FL0076h" unicode="v" horiz-adv-x="1086" 
d="M524 259l-233.003 406h-272l324 -574c12 -14 25.333 -26.5 40 -37.5s30.334 -20.833 47.001 -29.5c15.333 -8 31.833 -14 49.5 -18s37.834 -6 60.501 -6c40 0 77.5 8 112.5 24s65.167 38.333 90.5 67l324 574h-272l-233 -406c-5.33301 -8 -11.666 -12 -18.999 -12
c-5.33301 0 -8.83301 1 -10.5 3s-4.5 5 -8.5 9z" />
    <glyph glyph-name="FL0077h" unicode="w" horiz-adv-x="1288" 
d="M516 665l255.999 -0.00195312v-404c0 -4 1.16699 -9.83301 3.5 -17.5s5.5 -15.167 9.5 -22.5s8.66699 -13.833 14 -19.5s11.333 -8.5 18 -8.5h140c5.33301 0 10.5 2.16699 15.5 6.5s9.5 10 13.5 17s7.16699 14.667 9.5 23s3.5 16.5 3.5 24.5v401h256v-440
c0 -24 -5 -49.167 -15 -75.5s-23.833 -50.666 -41.5 -72.999s-38.334 -40.666 -62.001 -54.999s-49.5 -21.5 -77.5 -21.5h-339c-6 0 -12.667 1.66699 -20 5s-14.666 7.5 -21.999 12.5s-14 10.167 -20 15.5s-10.667 10 -14 14l-16.5 -14
c-6.33301 -5.33301 -12.833 -10.5 -19.5 -15.5s-13.5 -9.16699 -20.5 -12.5s-13.5 -5 -19.5 -5h-339c-29.333 0 -56 8 -80 24s-44.667 36.167 -62 60.5s-30.666 50.833 -39.999 79.5s-14 55.667 -14 81v420h256v-404c0 -4 1.16699 -9.83301 3.5 -17.5s5.5 -15.167 9.5 -22.5
s8.66699 -13.833 14 -19.5s11.333 -8.5 18 -8.5h140c5.33301 0 10.5 2.16699 15.5 6.5s9.5 10 13.5 17s7.16699 14.667 9.5 23s3.5 16.5 3.5 24.5v401z" />
    <glyph glyph-name="FL007Eh" unicode="x" horiz-adv-x="947" 
d="M580 332l147 -135.001c3.33301 -4.66699 8 -8.5 14 -11.5s11.333 -5.16699 16 -6.5h157v-179h-298c-5.33301 0 -12 2 -20 6s-16 8.66699 -24 14s-15.333 10.833 -22 16.5s-11.334 10.167 -14.001 13.5c-2 2 -5.5 4.83301 -10.5 8.5l-17.5 13
c-6.66699 5 -13.167 10.333 -19.5 16s-11.5 10.834 -15.5 15.501c-4 -4.66699 -9.16699 -10.167 -15.5 -16.5l-19 -19l-16.5 -17c-4.66699 -5 -7.66699 -8.5 -9 -10.5c-2.66699 -3.33301 -7.16699 -7.33301 -13.5 -12s-13.333 -9 -21 -13s-15.334 -7.5 -23.001 -10.5
s-14.167 -4.5 -19.5 -4.5h-303v179h153c4.66699 1.33301 10 3.5 16 6.5s10.667 6.83301 14 11.5l149 135l-148 137c-5.33301 6 -10.333 10.167 -15 12.5s-9.66699 3.83301 -15 4.5h-154v179h304c4.66699 0 11 -2 19 -6s16 -8.66699 24 -14s15.333 -10.833 22 -16.5
s11.334 -10.167 14.001 -13.5c1.33301 -2 4.33301 -5 9 -9l15.5 -13.5l17.5 -15.5c6 -5.33301 11 -10.333 15 -15c4 4.66699 9.16699 9.66699 15.5 15s12.833 10.5 19.5 15.5l17.5 13.5c5 4 8.5 7 10.5 9c2.66699 3.33301 7.33398 7.83301 14.001 13.5s14 11.167 22 16.5
s16 10 24 14s14.667 6 20 6h298v-179h-157c-4.66699 -1.33301 -10 -3.5 -16 -6.5s-10.667 -6.83301 -14 -11.5z" />
    <glyph glyph-name="FL0079h" unicode="y" horiz-adv-x="916" 
d="M627 665l-0.000976562 -240.999h-319c-1.33301 0 -4.66602 3.16699 -9.99902 9.5s-8.66602 10.833 -9.99902 13.5v218h-255v-210c0 -20 1.5 -37.833 4.5 -53.5s8 -30.334 15 -44.001s15.833 -26.667 26.5 -39s23.667 -25.166 39 -38.499
c2.66699 -2.66699 6.66699 -5.83398 12 -9.50098s11.166 -7 17.499 -10s12.5 -5.66699 18.5 -8s11 -3.5 15 -3.5h446v-33c-0.666992 -3.33301 -2.66699 -6.83301 -6 -10.5s-7.33301 -7.83398 -12 -12.501h-575v-193h694c20.667 0 40.334 7 59.001 21s35.167 31.333 49.5 52
s25.666 42.334 33.999 65.001s12.5 42.667 12.5 60v467h-256z" />
    <glyph glyph-name="FL007Ah" unicode="z" horiz-adv-x="912" 
d="M33 169v-169h845v241h-256v-48h-182l439 303v169h-845v-241h256v48h182z" />
    <glyph glyph-name="FL007Fh" unicode="{" horiz-adv-x="704" 
d="M230 492c0 25.333 4.66699 52.335 14 81.002s22.666 55.167 39.999 79.5s38 44.5 62 60.5s50.667 24 80 24h245v-193h-140c-6.66699 0 -12.667 -2.83301 -18 -8.5s-10 -12.167 -14 -19.5s-7.16699 -14.833 -9.5 -22.5s-3.5 -13.5 -3.5 -17.5v-285
c0 -4 1.16699 -9.83301 3.5 -17.5s5.5 -15.334 9.5 -23.001s8.66699 -14.334 14 -20.001s11.333 -8.5 18 -8.5h140v-192h-245c-29.333 0 -56 8 -80 24s-44.667 36.167 -62 60.5s-30.666 50.833 -39.999 79.5s-14 55.667 -14 81v74h-197v171h197v72z" />
    <glyph glyph-name="FL0082h" unicode="|" horiz-adv-x="322" 
d="M33 -84h256v834h-256v-834z" />
    <glyph glyph-name="FL0080h" unicode="}" horiz-adv-x="704" 
d="M474 492c0 25.333 -4.66699 52.335 -14 81.002s-22.666 55.167 -39.999 79.5s-38 44.5 -62 60.5s-50.667 24 -80 24h-245v-193h140c6.66699 0 12.667 -2.83301 18 -8.5s10 -12.167 14 -19.5s7.16699 -14.833 9.5 -22.5s3.5 -13.5 3.5 -17.5v-285
c0 -4 -1.16699 -9.83301 -3.5 -17.5s-5.5 -15.334 -9.5 -23.001s-8.66699 -14.334 -14 -20.001s-11.333 -8.5 -18 -8.5h-140v-192h245c29.333 0 56 8 80 24s44.667 36.167 62 60.5s30.666 50.833 39.999 79.5s14 55.667 14 81v74h197v171h-197v72z" />
    <glyph glyph-name="FL0083h" unicode="~" horiz-adv-x="588" 
d="M513 249h-245l-34 105l-37 -105h-177l55 168h243l36 -104l36 104h178z" />
    <glyph glyph-name="FL0081h" horiz-adv-x="327" 
 />
    <glyph glyph-name="FL20ACh" horiz-adv-x="1040" 
d="M665 227l-232.002 -0.000976562c4 -9.33301 9 -17.333 15 -24s12.667 -10 20 -10h241c9.33301 0 17.833 5.83301 25.5 17.5s12.834 24.5 15.501 38.5h257v-25c0 -24 -5 -49.167 -15 -75.5s-23.833 -50.5 -41.5 -72.5s-38.334 -40.167 -62.001 -54.5
s-49.5 -21.5 -77.5 -21.5h-448c-27.333 0 -52.5 7.16699 -75.5 21.5s-43 32.5 -60 54.5s-30.667 46.333 -41 73s-16.5 52.667 -18.5 78h-135v92h134v32h-134v92h135c2.66699 24.667 9.16699 50 19.5 76s24 49.833 41 71.5s36.833 39.5 59.5 53.5s47.667 21 75 21h448
c28 0 53.833 -7.16699 77.5 -21.5s44.334 -32.5 62.001 -54.5s31.5 -46.167 41.5 -72.5s15 -51.5 15 -75.5v-17h-259c-3.33301 12.667 -8.5 23.834 -15.5 33.501s-14.833 14.5 -23.5 14.5h-241c-7.33301 0 -13.666 -3 -18.999 -9s-10 -12.667 -14 -20h230v-92h-242v-32h242
v-92z" />
    <glyph glyph-name="FL20ACh" unicode="&#x20ac;" horiz-adv-x="1040" 
d="M665 227l-232.002 -0.000976562c4 -9.33301 9 -17.333 15 -24s12.667 -10 20 -10h241c9.33301 0 17.833 5.83301 25.5 17.5s12.834 24.5 15.501 38.5h257v-25c0 -24 -5 -49.167 -15 -75.5s-23.833 -50.5 -41.5 -72.5s-38.334 -40.167 -62.001 -54.5
s-49.5 -21.5 -77.5 -21.5h-448c-27.333 0 -52.5 7.16699 -75.5 21.5s-43 32.5 -60 54.5s-30.667 46.333 -41 73s-16.5 52.667 -18.5 78h-135v92h134v32h-134v92h135c2.66699 24.667 9.16699 50 19.5 76s24 49.833 41 71.5s36.833 39.5 59.5 53.5s47.667 21 75 21h448
c28 0 53.833 -7.16699 77.5 -21.5s44.334 -32.5 62.001 -54.5s31.5 -46.167 41.5 -72.5s15 -51.5 15 -75.5v-17h-259c-3.33301 12.667 -8.5 23.834 -15.5 33.501s-14.833 14.5 -23.5 14.5h-241c-7.33301 0 -13.666 -3 -18.999 -9s-10 -12.667 -14 -20h230v-92h-242v-32h242
v-92z" />
    <glyph glyph-name="FL017Dh" horiz-adv-x="912" 
d="M33 0v169l439 303h-182v-48h-256v241h845v-169l-439 -303h182v48h256v-241h-845zM629 700h-352l-61 140h197l40 -87l40 87h197z" />
    <glyph glyph-name="FL017Dh" unicode="&#x17d;" horiz-adv-x="912" 
d="M33 0v169l439 303h-182v-48h-256v241h845v-169l-439 -303h182v48h256v-241h-845zM629 700h-352l-61 140h197l40 -87l40 87h197z" />
    <glyph glyph-name="FL017Eh" horiz-adv-x="912" 
d="M33 0v169l439 303h-182v-48h-256v241h845v-169l-439 -303h182v48h256v-241h-845zM629 700h-352l-61 140h197l40 -87l40 87h197z" />
    <glyph glyph-name="FL017Eh" unicode="&#x17e;" horiz-adv-x="912" 
d="M33 0v169l439 303h-182v-48h-256v241h845v-169l-439 -303h182v48h256v-241h-845zM629 700h-352l-61 140h197l40 -87l40 87h197z" />
    <glyph glyph-name="FL00A1h" unicode="&#xa1;" horiz-adv-x="322" 
d="M289 411v-411h-256v411h256zM289 472h-256v193h256v-193z" />
    <glyph glyph-name="FL00A2h" unicode="&#xa2;" 
d="M351 -84l-0.000976562 83.999h-122c-29.333 0 -56 8 -80 24s-44.667 36.167 -62 60.5s-30.666 50.833 -39.999 79.5s-14 55.667 -14 81v175c0 25.333 4.66699 52.333 14 81s22.666 55.167 39.999 79.5s38 44.5 62 60.5s50.667 24 80 24h122v85h216v-85h115
c28 0 53.833 -7.16699 77.5 -21.5s44.334 -32.5 62.001 -54.5s31.5 -46.167 41.5 -72.5s15 -51.5 15 -75.5v-17h-259c-3.33301 12.667 -8.5 23.834 -15.5 33.501s-14.833 14.5 -23.5 14.5h-13v-279h13c9.33301 0 17.833 5.83301 25.5 17.5s12.834 24.5 15.501 38.5h257v-25
c0 -24 -5 -49.167 -15 -75.5s-23.833 -50.5 -41.5 -72.5s-38.334 -40.167 -62.001 -54.5s-49.5 -21.5 -77.5 -21.5h-115v-84h-216zM288.999 260.999c0 -4 1.16699 -9.83301 3.5 -17.5s5.5 -15.167 9.5 -22.5s8.66699 -13.833 14 -19.5s11.333 -8.5 18 -8.5h17v279h-17
c-6.66699 0 -12.667 -2.83301 -18 -8.5s-10 -12.167 -14 -19.5s-7.16699 -14.833 -9.5 -22.5s-3.5 -13.5 -3.5 -17.5v-143z" />
    <glyph glyph-name="FL00A3h" unicode="&#xa3;" horiz-adv-x="902" 
d="M429 221c0 -4 1.83496 -9.33398 5.50195 -16.001s8.16699 -10.667 13.5 -12h421v-193h-836v193h135v17c0 12.667 1.66699 27.334 5 44.001h-140v162h139c-2.66699 10 -4 23 -4 39c0 26 4.5 51.5 13.5 76.5s21.667 47.333 38 67s36.166 35.667 59.499 48
s49.666 18.5 78.999 18.5h188v-192h-96c-6 -0.666992 -11 -4.66699 -15 -12s-6 -13 -6 -17c0 -7.33301 2.5 -13.5 7.5 -18.5s10.833 -8.16699 17.5 -9.5h249v-163h-254c-5.33301 -2 -10 -6.16699 -14 -12.5s-6 -12.833 -6 -19.5z" />
    <glyph glyph-name="FL00A4h" unicode="&#xa4;" horiz-adv-x="947" 
d="M727 197c3.33301 -4.66699 8 -8.50098 14 -11.501s11.333 -5.16699 16 -6.5h157v-179h-298c-5.33301 0 -12 2 -20 6s-16 8.66699 -24 14s-15.333 10.833 -22 16.5s-11.334 10.167 -14.001 13.5c-2 2 -5.5 4.83301 -10.5 8.5l-17.5 13c-6.66699 5 -13.167 10.333 -19.5 16
s-11.5 10.834 -15.5 15.501c-4 -4.66699 -9.16699 -10.167 -15.5 -16.5l-19 -19l-16.5 -17c-4.66699 -5 -7.66699 -8.5 -9 -10.5c-2.66699 -3.33301 -7.16699 -7.33301 -13.5 -12s-13.333 -9 -21 -13s-15.334 -7.5 -23.001 -10.5s-14.167 -4.5 -19.5 -4.5h-303v179h153
c4.66699 1.33301 10 3.5 16 6.5s10.667 6.83301 14 11.5l22 20c-10.667 22 -16 43.333 -16 64v101c0 20 5.66699 42 17 66l-22 21c-5.33301 6 -10.333 10.167 -15 12.5s-9.66699 3.83301 -15 4.5h-154v179h304c4.66699 0 11 -2 19 -6s16 -8.66699 24 -14
s15.333 -10.833 22 -16.5s11.334 -10.167 14.001 -13.5c1.33301 -2 4.33301 -5 9 -9l15.5 -13.5l17.5 -15.5c6 -5.33301 11 -10.333 15 -15c4 4.66699 9.16699 9.66699 15.5 15s12.833 10.5 19.5 15.5l17.5 13.5c5 4 8.5 7 10.5 9
c2.66699 3.33301 7.33398 7.83301 14.001 13.5s14 11.167 22 16.5s16 10 24 14s14.667 6 20 6h298v-179h-157c-4.66699 -1.33301 -10 -3.5 -16 -6.5s-10.667 -6.83301 -14 -11.5l-21 -19c10 -19.333 15 -38 15 -56v-123c0 -16.667 -4.66699 -35 -14 -55zM520 311.999v39
c0 4.66699 -1.16699 9.16699 -3.5 13.5s-5.16602 6.5 -8.49902 6.5h-73c-3.33301 0 -6.33301 -2.5 -9 -7.5s-4 -8.83301 -4 -11.5v-41c0 -2.66699 1.33301 -6.5 4 -11.5s5.66699 -7.5 9 -7.5h73c3.33301 0 6.16602 2.16699 8.49902 6.5s3.5 8.83301 3.5 13.5z" />
    <glyph glyph-name="FL00A5h" unicode="&#xa5;" horiz-adv-x="1047" 
d="M1014 134l-201.001 -0.00195312c-6 -16 -13.833 -32 -23.5 -48s-20.667 -30.333 -33 -43s-25.666 -23 -39.999 -31s-29.166 -12 -44.499 -12h-638v193h519c4.66699 4.66699 8.66699 8.83398 12 12.501s5.33301 7.16699 6 10.5v33h-390c-4 0 -9 1.16699 -15 3.5
s-12.167 5 -18.5 8s-12.166 6.33301 -17.499 10s-9.33301 6.83398 -12 9.50098c-15.333 13.333 -28.333 26.166 -39 38.499s-19.5 25.333 -26.5 39s-12 28.334 -15 44.001s-4.5 33.5 -4.5 53.5v210h255v-218c1.33301 -2.66699 4.66602 -7.16699 9.99902 -13.5
s8.66602 -9.5 9.99902 -9.5h263v241h256v-130h187v-171h-187v-59h187v-171z" />
    <glyph glyph-name="FL00A6h" unicode="&#xa6;" horiz-adv-x="322" 
d="M33 365v300h256v-300h-256zM33 304h256v-304h-256v304z" />
    <glyph glyph-name="FL00A7h" unicode="&#xa7;" horiz-adv-x="947" 
d="M721 270c0 -23.333 -5.5 -45.167 -16.5 -65.5s-27 -38 -48 -53s-47 -26.833 -78 -35.5s-66.167 -13 -105.5 -13c-4 -4.66699 -9.16699 -10.167 -15.5 -16.5l-19 -19l-16.5 -17c-4.66699 -5 -7.66699 -8.5 -9 -10.5c-2.66699 -3.33301 -7.16699 -7.33301 -13.5 -12
s-13.333 -9 -21 -13s-15.334 -7.5 -23.001 -10.5s-14.167 -4.5 -19.5 -4.5h-303v179h153c4.66699 1.33301 10 3.5 16 6.5s10.667 6.83301 14 11.5l22 20c-10.667 22 -16 43.333 -16 64v101c0 20 5.66699 42 17 66c9.33301 18.667 20 35 32 49s27 25.833 45 35.5
s39.667 17 65 22s56 7.5 92 7.5c4 4.66699 9.16699 9.66699 15.5 15s12.833 10.5 19.5 15.5l17.5 13.5c5 4 8.5 7 10.5 9c2.66699 3.33301 7.33398 7.83301 14.001 13.5s14 11.167 22 16.5s16 10 24 14s14.667 6 20 6h298v-179h-157c-4.66699 -1.33301 -10 -3.5 -16 -6.5
s-10.667 -6.83301 -14 -11.5l-21 -19c10 -19.333 15 -38 15 -56v-123zM520 311.999v39c0 4.66699 -1.16699 9.16699 -3.5 13.5s-5.16602 6.5 -8.49902 6.5h-73c-3.33301 0 -6.33301 -2.5 -9 -7.5s-4 -8.83301 -4 -11.5v-41c0 -2.66699 1.33301 -6.5 4 -11.5
s5.66699 -7.5 9 -7.5h73c3.33301 0 6.16602 2.16699 8.49902 6.5s3.5 8.83301 3.5 13.5z" />
    <glyph glyph-name="FL00A8h" unicode="&#xa8;" horiz-adv-x="540" 
d="M33 732h197v-140h-197v140zM310 732h197v-140h-197v140z" />
    <glyph glyph-name="FL00A9h" unicode="&#xa9;" horiz-adv-x="233" 
d="M117 732c14.667 0 28.668 -3.66699 42.001 -11c18 -10.667 29.333 -22.334 34 -35.001c9.33301 -15.333 14 -30 14 -44c0 -12.667 -4.66699 -27.667 -14 -45c-3.33301 -7.33301 -7.33301 -13 -12 -17s-10.334 -8.33301 -17.001 -13l-4 -3
c-13.333 -5.33301 -23.833 -8.66602 -31.5 -9.99902l-11.5 -2c-16 0 -31.333 4 -46 12c-7.33301 5.33301 -13.333 10.333 -18 15s-9.66699 10.667 -15 18c-8 14 -12 29 -12 45c0 34 15.333 60.333 46 79c28 7.33301 43 11 45 11zM117.001 718
c-28.667 0 -50.6641 -12.668 -65.9971 -38.001c-6.66699 -12.667 -10 -25.334 -10 -38.001c0 -13.333 3.33301 -25.333 10 -36c5.33301 -10.667 14.333 -20.334 27 -29.001l6 -1c15.333 -2.66699 25.833 -4.66699 31.5 -6s6.16699 -2 1.5 -2c11.333 0 23.666 3 36.999 9
c10.667 6.66699 19.667 16.334 27 29.001s11 24.667 11 36v4c0 8.66699 -2.16699 17.334 -6.5 26.001s-9.83301 16.334 -16.5 23.001s-14.334 12.167 -23.001 16.5s-17.334 6.5 -26.001 6.5h-3zM145.004 627.999l14 -4c-4.66699 -22.667 -18.667 -34 -42 -34
c-32 0 -48 17.333 -48 52c0 34 16 51 48 51c22 0 35.333 -9.33301 40 -28l-14 -3c-5.33301 12 -14 18 -26 18c-21.333 0 -32 -12.667 -32 -38c0 -24 10.333 -36 31 -36c15.333 0 25 7.33301 29 22z" />
    <glyph glyph-name="FL00AAh" unicode="&#xaa;" horiz-adv-x="910" 
d="M877 420l-0.00195312 -175c0 -25.333 -4.66699 -52.333 -14 -81s-22.666 -55.167 -39.999 -79.5s-38 -44.5 -62 -60.5s-50.667 -24 -80 -24h-453c-26 0 -50.667 6.16699 -74 18.5s-44 28.333 -62 48s-32.333 41.5 -43 65.5s-16 48 -16 72v4c0 26 4.66699 51.833 14 77.5
s22.5 48.5 39.5 68.5s37.333 36.167 61 48.5s49.834 18.5 78.501 18.5h337l-191 -173h-50c-2.66699 0 -6.66699 -2.33301 -12 -7s-8.66602 -12.667 -9.99902 -24c8.66699 -16 18.667 -24 30 -24h246c6.66699 0 12.667 2.83301 18 8.5s10 12.167 14 19.5
s7.16699 14.833 9.5 22.5s3.5 13.5 3.5 17.5v143c0 4 -1.16699 9.83301 -3.5 17.5s-5.5 15.167 -9.5 22.5s-8.66699 13.833 -14 19.5s-11.333 8.5 -18 8.5h-504v193h609c29.333 0 56 -8 80 -24s44.667 -36.167 62 -60.5s30.666 -50.833 39.999 -79.5s14 -55.667 14 -81z" />
    <glyph glyph-name="FL00ABh" unicode="&#xab;" horiz-adv-x="1006" 
d="M417 332l276 -332h293l-276 332l276 333h-292zM20 332l276 -332h293l-276 332l276 333h-292z" />
    <glyph glyph-name="FL00ACh" unicode="&#xac;" horiz-adv-x="564" 
d="M360 115v134h-327v171h498v-305h-171z" />
    <glyph glyph-name="FL00ADh" unicode="&#xad;" horiz-adv-x="459" 
d="M426 249h-393v171h393v-171z" />
    <glyph glyph-name="registered" unicode="&#xae;" horiz-adv-x="233" 
d="M117 732c16 0 29.998 -4.00098 41.998 -12.001c8.66699 -4.66699 15.834 -9.66699 21.501 -15s9.83398 -11.666 12.501 -18.999c9.33301 -15.333 14 -30 14 -44c0 -12.667 -4.66699 -27.667 -14 -45c-5.33301 -13.333 -16.333 -24.333 -33 -33
c-12 -6 -22.167 -9.5 -30.5 -10.5l-12.5 -1.5c-18 0 -33.333 4 -46 12c-12 8 -23 19 -33 33c-8 12.667 -12 27.667 -12 45c0 9.33301 1 16.833 3 22.5s4.66699 12.167 8 19.5l1 2c8 14.667 19.333 26 34 34c14 8 29 12 45 12zM116.998 716.999
c-28.667 0 -50.3301 -12.334 -64.9971 -37.001c-7.33301 -13.333 -11 -26 -11 -38l2.5 -10c1.66699 -6.66699 4.16699 -15.667 7.5 -27c4.66699 -8.66699 13.667 -18 27 -28l6 -2c11.333 -2.66699 19.666 -4.5 24.999 -5.5l8 -1.5c6 0 12 0.666992 18 2
s12.333 3.66602 19 6.99902c11.333 8 20.333 17.333 27 28c4 9.33301 6.83301 17.833 8.5 25.5l2.5 11.5l-1 4c0 8.66699 -2 17.334 -6 26.001s-9.33301 16.334 -16 23.001s-14.334 12 -23.001 16s-17.334 6 -26.001 6h-3zM78.002 591.998l0.000976562 97h32
c14 0 22.333 -1.33301 25 -4c2.66699 -1.33301 4.83398 -2.5 6.50098 -3.5s3.16699 -2.16699 4.5 -3.5c4 -5.33301 6 -10.333 6 -15c0 -16.667 -9.66699 -25.667 -29 -27c5.33301 -2.66699 9.16602 -5.66699 11.499 -9l11.5 -16l12 -19h-20l-7 16
c-8.66699 12.667 -14.334 19.667 -17.001 21c-2.66699 2.66699 -6.66699 4 -12 4h-9v-41h-15zM93.0029 645.998l18.001 0.000976562c9.33301 0 15.666 1.33301 18.999 4s5 6.66699 5 12s-3 9.66602 -9 12.999c-0.666992 0.666992 -6 1 -16 1h-17v-30z" />
    <glyph glyph-name="FL0074h" unicode="&#xaf;" 
d="M878 472h-294v-472h-256v472h-295v193h845v-193z" />
    <glyph glyph-name="FL00B0h" unicode="&#xb0;" horiz-adv-x="263" 
d="M230 732h-197v-140h197v140zM97 682h68v-39h-68v39z" />
    <glyph glyph-name="FL00B1h" unicode="&#xb1;" horiz-adv-x="564" 
d="M197 227v134h-164v171h164v133h171v-133h163v-171h-163v-134h-171zM530 0h-498v171h498v-171z" />
    <glyph glyph-name="FL00B2h" unicode="&#xb2;" horiz-adv-x="491" 
d="M458 516v-116.004h-425v105c0 25.333 5 47.333 15 66s27 33 51 43c4 1.33301 6.66699 2 8 2h-54v116h302c16 0 30.333 -3.16699 43 -9.5s23.5 -14.666 32.5 -24.999s15.833 -22.166 20.5 -35.499s7 -26.666 7 -39.999c0 -20.667 -3.33301 -37.5 -10 -50.5
s-18 -26.167 -34 -39.5h1c-3.33301 -2.66699 -8 -5.66699 -14 -9s-11.667 -5.66602 -17 -6.99902h74z" />
    <glyph glyph-name="FL00B3h" unicode="&#xb3;" 
d="M314 193c-6 0 -11 3.66699 -15 11s-6 13 -6 17c0 6.66699 2 13.167 6 19.5s8.66699 10.5 14 12.5h277l152 163h-424c-6.66699 1.33301 -12.5 4.5 -17.5 9.5s-7.5 11.167 -7.5 18.5c0 4 2 9.66699 6 17s9 11.333 15 12h563v192h-655
c-29.333 0 -55.666 -6.16699 -78.999 -18.5s-43.166 -28.333 -59.499 -48s-29 -42 -38 -67s-13.5 -50.5 -13.5 -76.5c0 -25.333 4.5 -48.5 13.5 -69.5s19.5 -38.833 31.5 -53.5c-12 -14.667 -22.5 -32.5 -31.5 -53.5s-13.5 -43.833 -13.5 -68.5c0 -26 4.5 -51.5 13.5 -76.5
s21.667 -47.333 38 -67s36.166 -35.667 59.499 -48s49.666 -18.5 78.999 -18.5h655v193h-563z" />
    <glyph glyph-name="FL00B5h" unicode="&#xb4;" horiz-adv-x="305" 
d="M284 732h-204l-61 -141h197z" />
    <glyph glyph-name="FL00B6h" unicode="&#xb5;" horiz-adv-x="916" 
d="M289 665l0.000976562 -240.999h319c1.33301 0 4.66602 3.16699 9.99902 9.5s8.66602 10.833 9.99902 13.5v218h255v-210c0 -20 -1.5 -37.833 -4.5 -53.5s-8 -30.334 -15 -44.001s-15.833 -26.667 -26.5 -39s-23.667 -25.166 -39 -38.499
c-2.66699 -2.66699 -6.66699 -5.83398 -12 -9.50098s-11.166 -7 -17.499 -10s-12.5 -5.66699 -18.5 -8s-11 -3.5 -15 -3.5h-446v-33c0.666992 -3.33301 2.66699 -6.83301 6 -10.5s7.33301 -7.83398 12 -12.501h575v-193h-694c-20.667 0 -40.334 7 -59.001 21
s-35.167 31.333 -49.5 52s-25.666 42.334 -33.999 65.001s-12.5 42.667 -12.5 60v467h256z" />
    <glyph glyph-name="FL004Ch" unicode="&#xb6;" 
d="M33 0l0.000976562 665.002h252v-363l4 -1l147 115h164c6.66699 1.33301 12.5 4.5 17.5 9.5s7.5 11.167 7.5 18.5v221h253v-210c0 -64.667 -18 -114.334 -54 -149.001s-89.333 -52.334 -160 -53.001l10 -22c2 -3.33301 6.66699 -8.5 14 -15.5l19 -18.5
c3.33301 -4.66699 8 -8.5 14 -11.5s11.333 -5.16699 16 -6.5h141v-179h-337c-5.33301 -0 -11.5 2.33301 -18.5 7s-13.833 10 -20.5 16s-12.834 12.167 -18.501 18.5s-9.83398 11.166 -12.501 14.499c-6 6.66699 -15.667 18 -29 34l-44 52.5l-48 57.5l-40 48
c-1.33301 1.33301 -2.16602 2.33301 -2.49902 3s-0.833008 1.33398 -1.5 2.00098h-21v-253h-252z" />
    <glyph glyph-name="FL00B8h" unicode="&#xb7;" horiz-adv-x="399" 
d="M366 264v137c0 8 -1.16699 16.167 -3.5 24.5s-5.5 16 -9.5 23s-8.5 12.667 -13.5 17s-10.167 6.5 -15.5 6.5h-246c-6.66699 0 -12.667 -2.83301 -18 -8.5s-10 -12.167 -14 -19.5s-7.16699 -14.833 -9.5 -22.5s-3.5 -13.5 -3.5 -17.5v-143
c0 -4 1.16699 -9.83301 3.5 -17.5s5.5 -15.167 9.5 -22.5s8.66699 -13.833 14 -19.5s11.333 -8.5 18 -8.5h246c5.33301 0 10.5 2.16699 15.5 6.5s9.5 10 13.5 17s7.16699 14.667 9.5 23s3.5 16.5 3.5 24.5z" />
    <glyph glyph-name="FL00B9h" unicode="&#xb8;" horiz-adv-x="307" 
d="M33 0h241v-66l-241 -107v173z" />
    <glyph glyph-name="FL00BCh" unicode="&#xb9;" horiz-adv-x="275" 
d="M242 732v-331h-169v201h-40v130h209z" />
    <glyph glyph-name="FL00B4h" unicode="&#xba;" horiz-adv-x="488" 
d="M285 549v34c0 4 -1 8 -3 12s-4.33301 6 -7 6h-62c-3.33301 0 -6 -2.33301 -8 -7s-3 -8 -3 -10v-36c0 -2 1 -5.33301 3 -10s4.66699 -7 8 -7h62c2.66699 0 5 2 7 6s3 8 3 12zM33 610c0 12.667 2.33301 26.167 7 40.5s11.334 27.5 20.001 39.5s19 22 31 30s25.333 12 40 12
h226c14 0 27 -3.66699 39 -11s22.333 -16.5 31 -27.5s15.5 -23 20.5 -36s7.5 -25.5 7.5 -37.5v-108c0 -12 -2.5 -24.667 -7.5 -38s-11.833 -25.5 -20.5 -36.5s-19 -20 -31 -27s-25 -10.5 -39 -10.5h-226c-14.667 0 -28 4 -40 12s-22.333 18 -31 30
s-15.334 25.167 -20.001 39.5s-7 27.833 -7 40.5v88z" />
    <glyph glyph-name="FL00BBh" unicode="&#xbb;" horiz-adv-x="1006" 
d="M589 332l-276 -332h-293l276 332l-276 333h292zM986 332l-276 -332h-293l276 332l-276 333h292z" />
    <glyph glyph-name="mu" unicode="&#xbc;" horiz-adv-x="1116" 
d="M1090 268l-2.00098 -0.999023l-14 -28h-62l40 -50l3 -9v-5c0 -12.667 -7 -22 -21 -28l-70 15l-9 -78c-3.33301 -9.33301 -12 -14 -26 -14c-11.333 0 -21.666 1.83301 -30.999 5.5s-20.666 9.16699 -33.999 16.5l-8 2l-68 -70l-35 -6l-44 38l-134 -64l-22 8v37l-176 -25
l-21 12l8 32l-182 15v23l21 22l-114 20c-14 0 -21 8.66699 -21 26l44 32l-78 34l-8 31l78 12l-40 48l4 38l82 -8c0 61.333 11.333 92 34 92h4l77 -24c18.667 22.667 34.167 39.667 46.5 51s25.166 19.666 38.499 24.999l64 -37l128 59l25 -22l-3 -19l3 -7l142 26l50 -5
l-6 -39h166l15 -14c0 -23.333 -9 -35.333 -27 -36l142 -36v-8c0 -20 -17.333 -32 -52 -36c62 -22 93 -39 93 -51zM1067 259.001l-6.00098 12l-113 54l70 19h9l-9 13l-162 33l56 39h-189l14 45l-184 -25l-5 39l-15 5l-127 -58l-56 39l-75 -75
c-4.66699 -2.66699 -10.667 -4 -18 -4c-18 0 -41 9 -69 27l-14 -92l-89 8l4 -28l49 -58l-90 -5l120 -58l-79 -33l171 -36l-57 -36l195 -7l-21 -44l176 29l22 -25l-8 -25l142 65l64 -40l71 79l90 -27l7 92l93 -14c0.666992 3.33301 1.33398 5.33301 2.00098 6l1 1
c0 12 -20 38 -60 78zM929.998 306.001l-13 -85l-21 2l4 88zM918.998 185.001l-19 -18l-15 14l15 12zM865.998 192.001c-20.667 0 -45.333 19 -74 57v-56l-22 -2v115l70 -76l4 81l22 -5v-114zM748.999 193.001l-16.002 3c-9.33301 18 -19.666 27 -30.999 27
c-9.33301 0 -19.333 -9 -30 -27h-27c7.33301 38.667 24.666 76.667 51.999 114c0.666992 2.66699 6.33398 4 17.001 4c14.667 0 26.334 -12.333 35.001 -37v-84zM632.997 311.001l-7 -113l-30 -7l13 115zM571.997 187.001c-18.667 0 -43.667 18.667 -75 56v-54l-22 -4v116
l73 -73l5 78l19 -5v-114zM460.997 268.001c-7.33301 -54 -23 -81 -47 -81c-4.66699 -0.666992 -8.5 -1.16699 -11.5 -1.5s-6.16699 -0.5 -9.5 -0.5c-22 0 -36.333 6 -43 18c0 50 15.333 84.333 46 103h15c27.333 0 44 -12.667 50 -38zM340.997 309.001l-2 -27.999
c-2.66699 1.33301 -4.5 2.16602 -5.5 2.49902l-1.5 0.5c0 0.666992 -2.33301 1 -7 1c-8.66699 0 -19.667 -5.66699 -33 -17c-12 -14 -18 -29.667 -18 -47c0 -15.333 8.66699 -23 26 -23c12 0 20 1 24 3l1 -19c-7.33301 -1.33301 -12.333 -2.66602 -15 -3.99902s-6 -2 -10 -2
c-24 0 -40 17.333 -48 52c-1.33301 1.33301 -2 3.66602 -2 6.99902v8c0 36 30.333 58 91 66zM236.997 306.002l-8 -112l-26 -9l13 118zM725.997 249.002l-16 38l-23 -38h39zM435.997 251.002c0 1.33301 -0.166016 3.16895 -0.499023 5.50195s-0.5 5.16602 -0.5 8.49902
c-7.33301 9.33301 -15.333 14 -24 14c-14.667 0 -26.334 -12 -35.001 -36v-8c0 -18.667 6.33301 -28 19 -28c9.33301 0 20.333 3.33301 33 10c3.33301 6.66699 5.5 12.167 6.5 16.5s1.5 10.166 1.5 17.499z" />
    <glyph glyph-name="FL00BDh" unicode="&#xbd;" horiz-adv-x="961" 
d="M928 116v-116.004h-425v105c0 25.333 5 47.333 15 66s27 33 51 43c-0.666992 0 1 0.666992 5 2h-51v38l-211 -254h-293l278 334h-81v201h-40v130h209v-224l186 224h292l-276 -333h238c16 0 30.333 -3.16699 43 -9.5s23.5 -14.666 32.5 -24.999
s15.833 -22.166 20.5 -35.499s7 -26.666 7 -39.999c0 -20.667 -3.33301 -37.5 -10 -50.5s-18 -26.167 -34 -39.5h1c-3.33301 -2.66699 -8 -5.66699 -14 -9s-11.667 -5.66602 -17 -6.99902h74z" />
    <glyph glyph-name="FL00BEh" unicode="&#xbe;" horiz-adv-x="1071" 
d="M1045 259l-6.00098 12l-113 54l70 19h9l-9 13l-162 33l56 39h-189l14 45l-184 -25l-5 39l-15 5l-127 -58l-56 39l-75 -75c-4.66699 -2.66699 -10.667 -4 -18 -4c-18 0 -41 9 -69 27l-14 -92l-89 8l4 -28l49 -58l-90 -5l120 -58l-79 -33l171 -36l-57 -36l195 -7l-21 -44
l176 29l22 -25l-8 -25l142 65l64 -40l71 79l90 -27l7 92l93 -14c0.666992 3.33301 1.33398 5.33301 2.00098 6l1 1c0 12 -20 38 -60 78zM907.999 306l-13 -85l-21 2l4 88zM896.999 185l-19 -18l-15 14l15 12zM843.999 192c-20.667 0 -45.333 19 -74 57v-56l-22 -2v115
l70 -76l4 81l22 -5v-114zM727 193l-16.002 3c-9.33301 18 -19.666 27 -30.999 27c-9.33301 0 -19.333 -9 -30 -27h-27c7.33301 38.667 24.666 76.667 51.999 114c0.666992 2.66699 6.33398 4 17.001 4c14.667 0 26.334 -12.333 35.001 -37v-84zM610.998 311l-7 -113l-30 -7
l13 115zM549.998 187c-18.667 0 -43.667 18.667 -75 56v-54l-22 -4v116l73 -73l5 78l19 -5v-114zM438.998 268c-7.33301 -54 -23 -81 -47 -81c-4.66699 -0.666992 -8.5 -1.16699 -11.5 -1.5s-6.16699 -0.5 -9.5 -0.5c-22 0 -36.333 6 -43 18c0 50 15.333 84.333 46 103h15
c27.333 0 44 -12.667 50 -38zM318.998 309l-2 -27.999c-2.66699 1.33301 -4.5 2.16602 -5.5 2.49902l-1.5 0.5c0 0.666992 -2.33301 1 -7 1c-8.66699 0 -19.667 -5.66699 -33 -17c-12 -14 -18 -29.667 -18 -47c0 -15.333 8.66699 -23 26 -23c12 0 20 1 24 3l1 -19
c-7.33301 -1.33301 -12.333 -2.66602 -15 -3.99902s-6 -2 -10 -2c-24 0 -40 17.333 -48 52c-1.33301 1.33301 -2 3.66602 -2 6.99902v8c0 36 30.333 58 91 66zM214.998 306.001l-8 -112l-26 -9l13 118zM703.998 249.001l-16 38l-23 -38h39zM413.998 251.001
c0 1.33301 -0.166016 3.16895 -0.499023 5.50195s-0.5 5.16602 -0.5 8.49902c-7.33301 9.33301 -15.333 14 -24 14c-14.667 0 -26.334 -12 -35.001 -36v-8c0 -18.667 6.33301 -28 19 -28c9.33301 0 20.333 3.33301 33 10c3.33301 6.66699 5.5 12.167 6.5 16.5
s1.5 10.166 1.5 17.499z" />
    <glyph glyph-name="FL00BFh" unicode="&#xbf;" horiz-adv-x="873" 
d="M180 416l576.002 0.998047c0 -24.667 -2.16699 -45.334 -6.5 -62.001s-11.333 -31.167 -21 -43.5s-22.334 -23.166 -38.001 -32.499s-34.834 -19 -57.501 -29c-7.33301 -3.33301 -17.333 -5.66602 -30 -6.99902s-22.667 -2 -30 -2h-267
c-1.33301 0 -3.66602 -2.16699 -6.99902 -6.5s-5.66602 -7.83301 -6.99902 -10.5v-4c0 -4 2.16699 -9.66699 6.5 -17s9.16602 -11 14.499 -11h526v-192h-617c-28.667 0 -54.667 6 -78 18s-43.333 28 -60 48s-29.5 42.5 -38.5 67.5s-13.5 50.5 -13.5 76.5
c0 20 1.5 37.833 4.5 53.5s8 30.334 15 44.001s15.833 26.667 26.5 39s23.667 25.166 39 38.499c2.66699 2.66699 6.66699 5.83398 12 9.50098s11.166 7 17.499 10s12.5 5.66699 18.5 8s11 3.5 15 3.5zM756.002 471.998h-256v193h256v-193z" />
    <glyph glyph-name="FL00C0h" unicode="&#xc0;" horiz-adv-x="1107" 
d="M567 407l180.002 -214h-402l185 216c2.66699 2.66699 5.66699 4.5 9 5.5s6.33301 1.5 9 1.5c5.33301 0 8.66602 -0.333008 9.99902 -1s3.66602 -2.66699 6.99902 -6zM1074 0l0.00195312 193l-327 380c-25.333 30 -55 52.667 -89 68s-71 23 -111 23
c-21.333 0 -40.5 -2 -57.5 -6s-33 -9.83301 -48 -17.5s-29.333 -17.167 -43 -28.5s-27.834 -24.333 -42.501 -39l-324 -383c-2.66699 -5.33301 -4.33398 -10 -5.00098 -14s-1 -8.33301 -1 -13c22 -32 46.833 -62 74.5 -90s62.5 -52.333 104.5 -73h561v168l145 -168h163z
M616.004 840h-204l68 -141h197z" />
    <glyph glyph-name="FL00C1h" unicode="&#xc1;" horiz-adv-x="1107" 
d="M567 407l180.002 -214h-402l185 216c2.66699 2.66699 5.66699 4.5 9 5.5s6.33301 1.5 9 1.5c5.33301 0 8.66602 -0.333008 9.99902 -1s3.66602 -2.66699 6.99902 -6zM1074 0l0.00195312 193l-327 380c-25.333 30 -55 52.667 -89 68s-71 23 -111 23
c-21.333 0 -40.5 -2 -57.5 -6s-33 -9.83301 -48 -17.5s-29.333 -17.167 -43 -28.5s-27.834 -24.333 -42.501 -39l-324 -383c-2.66699 -5.33301 -4.33398 -10 -5.00098 -14s-1 -8.33301 -1 -13c22 -32 46.833 -62 74.5 -90s62.5 -52.333 104.5 -73h561v168l145 -168h163z
M695.004 840h-204l-61 -141h197z" />
    <glyph glyph-name="FL00C2h" unicode="&#xc2;" horiz-adv-x="1107" 
d="M567 407l180.002 -214h-402l185 216c2.66699 2.66699 5.66699 4.5 9 5.5s6.33301 1.5 9 1.5c5.33301 0 8.66602 -0.333008 9.99902 -1s3.66602 -2.66699 6.99902 -6zM1074 0l0.00195312 193l-327 380c-25.333 30 -55 52.667 -89 68s-71 23 -111 23
c-21.333 0 -40.5 -2 -57.5 -6s-33 -9.83301 -48 -17.5s-29.333 -17.167 -43 -28.5s-27.834 -24.333 -42.501 -39l-324 -383c-2.66699 -5.33301 -4.33398 -10 -5.00098 -14s-1 -8.33301 -1 -13c22 -32 46.833 -62 74.5 -90s62.5 -52.333 104.5 -73h561v168l145 -168h163z
M727.004 840h-352l-61 -140h197l40 87l40 -87h197z" />
    <glyph glyph-name="FL00C3h" unicode="&#xc3;" horiz-adv-x="1107" 
d="M1074 193l-0.00195312 -193h-163l-145 168v-168h-561c-42 20.667 -76.833 45 -104.5 73s-52.5 58 -74.5 90c0 4.66699 0.333008 9 1 13s2.33398 8.66699 5.00098 14l324 383c14.667 14.667 28.834 27.667 42.501 39s28 20.833 43 28.5s31 13.5 48 17.5s36.167 6 57.5 6
c40 0 77 -7.66699 111 -23s63.667 -38 89 -68zM746.998 193l-180.002 214l-2 2c-3.33301 3.33301 -5.66602 5.33301 -6.99902 6s-4.66602 1 -9.99902 1c-2.66699 0 -5.66699 -0.5 -9 -1.5s-6.33301 -2.83301 -9 -5.5l-185 -216h402zM780.996 700h-271l-39 87l-40 -87h-197
l61 139h270l40 -86l40 86h197z" />
    <glyph glyph-name="FL00C4h" unicode="&#xc4;" horiz-adv-x="1107" 
d="M567 407l180.002 -214h-402l185 216c2.66699 2.66699 5.66699 4.5 9 5.5s6.33301 1.5 9 1.5c5.33301 0 8.66602 -0.333008 9.99902 -1s3.66602 -2.66699 6.99902 -6zM1074 0l0.00195312 193l-327 380c-25.333 30 -55 52.667 -89 68s-71 23 -111 23
c-21.333 0 -40.5 -2 -57.5 -6s-33 -9.83301 -48 -17.5s-29.333 -17.167 -43 -28.5s-27.834 -24.333 -42.501 -39l-324 -383c-2.66699 -5.33301 -4.33398 -10 -5.00098 -14s-1 -8.33301 -1 -13c22 -32 46.833 -62 74.5 -90s62.5 -52.333 104.5 -73h561v168l145 -168h163z
M788.004 840h-197v-140h197v140zM511.004 840h-197v-140h197v140z" />
    <glyph glyph-name="FL00C5h" unicode="&#xc5;" horiz-adv-x="1107" 
d="M567 407l180.002 -214h-402l185 216c2.66699 2.66699 5.66699 4.5 9 5.5s6.33301 1.5 9 1.5c5.33301 0 8.66602 -0.333008 9.99902 -1s3.66602 -2.66699 6.99902 -6zM1074 0l0.00195312 193l-327 380c-25.333 30 -55 52.667 -89 68s-71 23 -111 23
c-21.333 0 -40.5 -2 -57.5 -6s-33 -9.83301 -48 -17.5s-29.333 -17.167 -43 -28.5s-27.834 -24.333 -42.501 -39l-324 -383c-2.66699 -5.33301 -4.33398 -10 -5.00098 -14s-1 -8.33301 -1 -13c22 -32 46.833 -62 74.5 -90s62.5 -52.333 104.5 -73h561v168l145 -168h163z
M650.004 840h-197v-140h197v140zM517.004 790h68v-39h-68v39z" />
    <glyph glyph-name="FL00C6h" unicode="&#xc6;" horiz-adv-x="1705" 
d="M33 193l326.999 380c25.333 30 55 52.667 89 68s71 23 111 23c21.333 0 40.5 -2 57.5 -6s33 -9.83301 48 -17.5s29.333 -17.167 43 -28.5s27.834 -24.333 42.501 -39l76 -90v182h845v-241h-256v48h-333v-52h272v-171h-272v-56h333v56h256v-249h-1331v168l-145 -168h-163
v193zM359.999 193h401.998l-185 216c-2.66699 2.66699 -5.66699 4.5 -9 5.5s-6.33301 1.5 -9 1.5c-5.33301 0 -8.66602 -0.333008 -9.99902 -1s-3.66602 -2.66699 -6.99902 -6l-2 -2z" />
    <glyph glyph-name="FL00C7h" unicode="&#xc7;" 
d="M33 420c0 25.333 4.66602 52.332 13.999 80.999s22.666 55.167 39.999 79.5s38 44.5 62 60.5s50.667 24 80 24h453c28 0 53.833 -7.16699 77.5 -21.5s44.334 -32.5 62.001 -54.5s31.5 -46.167 41.5 -72.5s15 -51.5 15 -75.5v-17h-259
c-3.33301 12.667 -8.5 23.834 -15.5 33.501s-14.833 14.5 -23.5 14.5h-246c-6.66699 0 -12.667 -2.83301 -18 -8.5s-10 -12.167 -14 -19.5s-7.16699 -14.833 -9.5 -22.5s-3.5 -13.5 -3.5 -17.5v-143c0 -4 1.16699 -9.83301 3.5 -17.5s5.5 -15.167 9.5 -22.5
s8.66699 -13.833 14 -19.5s11.333 -8.5 18 -8.5h246c9.33301 0 17.833 5.83301 25.5 17.5s12.834 24.5 15.501 38.5h257v-25c0 -24 -5 -49.167 -15 -75.5s-23.833 -50.5 -41.5 -72.5s-38.334 -40.167 -62.001 -54.5s-49.5 -21.5 -77.5 -21.5h-105v-66l-241 -107v173h-107
c-29.333 0 -56 8 -80 24s-44.667 36.167 -62 60.5s-30.666 50.833 -39.999 79.5s-14 55.667 -14 81v175z" />
    <glyph glyph-name="FL00C8h" unicode="&#xc8;" horiz-adv-x="910" 
d="M33 245l0.00195312 175c0 25.333 4.66699 52.333 14 81s22.666 55.167 39.999 79.5s38 44.5 62 60.5s50.667 24 80 24h453c26 0 50.667 -6.16699 74 -18.5s44 -28.333 62 -48s32.333 -41.5 43 -65.5s16 -48 16 -72v-4c0 -26 -4.66699 -51.833 -14 -77.5
s-22.5 -48.5 -39.5 -68.5s-37.333 -36.167 -61 -48.5s-49.834 -18.5 -78.501 -18.5h-337l191 173h50c2.66699 0 6.66699 2.33301 12 7s8.66602 12.667 9.99902 24c-9.33301 16 -19.333 24 -30 24h-246c-6.66699 0 -12.667 -2.83301 -18 -8.5s-10 -12.167 -14 -19.5
s-7.16699 -14.833 -9.5 -22.5s-3.5 -13.5 -3.5 -17.5v-143c0 -4 1.16699 -9.83301 3.5 -17.5s5.5 -15.167 9.5 -22.5s8.66699 -13.833 14 -19.5s11.333 -8.5 18 -8.5h504v-193h-609c-29.333 0 -56 8 -80 24s-44.667 36.167 -62 60.5s-30.666 50.833 -39.999 79.5
s-14 55.667 -14 81zM310.002 840h204l61 -141h-197z" />
    <glyph glyph-name="FL00C9h" unicode="&#xc9;" horiz-adv-x="910" 
d="M33 245l0.00195312 175c0 25.333 4.66699 52.333 14 81s22.666 55.167 39.999 79.5s38 44.5 62 60.5s50.667 24 80 24h453c26 0 50.667 -6.16699 74 -18.5s44 -28.333 62 -48s32.333 -41.5 43 -65.5s16 -48 16 -72v-4c0 -26 -4.66699 -51.833 -14 -77.5
s-22.5 -48.5 -39.5 -68.5s-37.333 -36.167 -61 -48.5s-49.834 -18.5 -78.501 -18.5h-337l191 173h50c2.66699 0 6.66699 2.33301 12 7s8.66602 12.667 9.99902 24c-9.33301 16 -19.333 24 -30 24h-246c-6.66699 0 -12.667 -2.83301 -18 -8.5s-10 -12.167 -14 -19.5
s-7.16699 -14.833 -9.5 -22.5s-3.5 -13.5 -3.5 -17.5v-143c0 -4 1.16699 -9.83301 3.5 -17.5s5.5 -15.167 9.5 -22.5s8.66699 -13.833 14 -19.5s11.333 -8.5 18 -8.5h504v-193h-609c-29.333 0 -56 8 -80 24s-44.667 36.167 -62 60.5s-30.666 50.833 -39.999 79.5
s-14 55.667 -14 81zM396.002 840h204l-68 -141h-197z" />
    <glyph glyph-name="FL00CAh" unicode="&#xca;" horiz-adv-x="910" 
d="M33 245l0.00195312 175c0 25.333 4.66699 52.333 14 81s22.666 55.167 39.999 79.5s38 44.5 62 60.5s50.667 24 80 24h453c26 0 50.667 -6.16699 74 -18.5s44 -28.333 62 -48s32.333 -41.5 43 -65.5s16 -48 16 -72v-4c0 -26 -4.66699 -51.833 -14 -77.5
s-22.5 -48.5 -39.5 -68.5s-37.333 -36.167 -61 -48.5s-49.834 -18.5 -78.501 -18.5h-337l191 173h50c2.66699 0 6.66699 2.33301 12 7s8.66602 12.667 9.99902 24c-9.33301 16 -19.333 24 -30 24h-246c-6.66699 0 -12.667 -2.83301 -18 -8.5s-10 -12.167 -14 -19.5
s-7.16699 -14.833 -9.5 -22.5s-3.5 -13.5 -3.5 -17.5v-143c0 -4 1.16699 -9.83301 3.5 -17.5s5.5 -15.167 9.5 -22.5s8.66699 -13.833 14 -19.5s11.333 -8.5 18 -8.5h504v-193h-609c-29.333 0 -56 8 -80 24s-44.667 36.167 -62 60.5s-30.666 50.833 -39.999 79.5
s-14 55.667 -14 81zM277.002 840h352l61 -140h-197l-40 87l-40 -87h-197z" />
    <glyph glyph-name="FL00CBh" unicode="&#xcb;" horiz-adv-x="910" 
d="M33 245l0.00195312 175c0 25.333 4.66699 52.333 14 81s22.666 55.167 39.999 79.5s38 44.5 62 60.5s50.667 24 80 24h453c26 0 50.667 -6.16699 74 -18.5s44 -28.333 62 -48s32.333 -41.5 43 -65.5s16 -48 16 -72v-4c0 -26 -4.66699 -51.833 -14 -77.5
s-22.5 -48.5 -39.5 -68.5s-37.333 -36.167 -61 -48.5s-49.834 -18.5 -78.501 -18.5h-337l191 173h50c2.66699 0 6.66699 2.33301 12 7s8.66602 12.667 9.99902 24c-9.33301 16 -19.333 24 -30 24h-246c-6.66699 0 -12.667 -2.83301 -18 -8.5s-10 -12.167 -14 -19.5
s-7.16699 -14.833 -9.5 -22.5s-3.5 -13.5 -3.5 -17.5v-143c0 -4 1.16699 -9.83301 3.5 -17.5s5.5 -15.167 9.5 -22.5s8.66699 -13.833 14 -19.5s11.333 -8.5 18 -8.5h504v-193h-609c-29.333 0 -56 8 -80 24s-44.667 36.167 -62 60.5s-30.666 50.833 -39.999 79.5
s-14 55.667 -14 81zM216.002 840h197v-140h-197v140zM493.002 840h197v-140h-197v140z" />
    <glyph glyph-name="FL00CCh" unicode="&#xcc;" horiz-adv-x="912" 
d="M878 241l1 -241h-846v241h257v-48h38v279h-38v-48h-257v241h846v-241h-257v48h-38v-279h38v48h256zM310 840h204l61 -141h-197z" />
    <glyph glyph-name="FL00CDh" unicode="&#xcd;" horiz-adv-x="912" 
d="M878 241l1 -241h-846v241h257v-48h38v279h-38v-48h-257v241h846v-241h-257v48h-38v-279h38v48h256zM396 840h204l-68 -141h-197z" />
    <glyph glyph-name="FL00CEh" unicode="&#xce;" horiz-adv-x="912" 
d="M878 241l1 -241h-846v241h257v-48h38v279h-38v-48h-257v241h846v-241h-257v48h-38v-279h38v48h256zM279 840h352l61 -140h-197l-40 87l-40 -87h-197z" />
    <glyph glyph-name="FL00CFh" unicode="&#xcf;" horiz-adv-x="912" 
d="M878 241l1 -241h-846v241h257v-48h38v279h-38v-48h-257v241h846v-241h-257v48h-38v-279h38v48h256zM218 840h197v-140h-197v140zM495 840h197v-140h-197v140z" />
    <glyph glyph-name="FL00D0h" unicode="&#xd0;" horiz-adv-x="1043" 
d="M165 665h649c28 0 53.833 -7.16699 77.5 -21.5s44.334 -32.5 62.001 -54.5s31.5 -46.167 41.5 -72.5s15 -51.5 15 -75.5v-217c0 -24 -5 -49.167 -15 -75.5s-23.833 -50.5 -41.5 -72.5s-38.334 -40.167 -62.001 -54.5s-49.5 -21.5 -77.5 -21.5h-649v249h-132v171h132v245z
M561 249h-144v-169h11l140 112h39l-1 1h106c5.33301 0 10.5 2.16699 15.5 6.5s9.5 10 13.5 17s7.16699 14.667 9.5 23s3.5 16.5 3.5 24.5v137c0 8 -1.16699 16.167 -3.5 24.5s-5.5 16 -9.5 23s-8.5 12.667 -13.5 17s-10.167 6.5 -15.5 6.5h-295v-52h144v-171z" />
    <glyph glyph-name="FL00D1h" unicode="&#xd1;" 
d="M33 665h208c21.333 0 43.333 -6.16699 66 -18.5s48.5 -31 77.5 -56s62.667 -56 101 -93l136.5 -129.5v297h256v-502c-18 -30 -40.167 -59.5 -66.5 -88.5s-60.5 -53.833 -102.5 -74.5h-51l-369 348v-348h-256v665zM696 700h-271l-39 87l-40 -87h-197l61 139h270l40 -86
l40 86h197z" />
    <glyph glyph-name="FL00D2h" unicode="&#xd2;" 
d="M33 420c0 25.333 4.66699 52.333 14 81s22.666 55.167 39.999 79.5s38 44.5 62 60.5s50.667 24 80 24h453c28 0 53.833 -7.16699 77.5 -21.5s44.334 -32.5 62.001 -54.5s31.5 -46.167 41.5 -72.5s15 -51.5 15 -75.5v-217c0 -24 -5 -49.167 -15 -75.5
s-23.833 -50.5 -41.5 -72.5s-38.334 -40.167 -62.001 -54.5s-49.5 -21.5 -77.5 -21.5h-453c-29.333 0 -56 8 -80 24s-44.667 36.167 -62 60.5s-30.666 50.833 -39.999 79.5s-14 55.667 -14 81v175zM622 264v137c0 8 -1.16699 16.167 -3.5 24.5s-5.5 16 -9.5 23
s-8.5 12.667 -13.5 17s-10.167 6.5 -15.5 6.5h-246c-6.66699 0 -12.667 -2.83301 -18 -8.5s-10 -12.167 -14 -19.5s-7.16699 -14.833 -9.5 -22.5s-3.5 -13.5 -3.5 -17.5v-143c0 -4 1.16699 -9.83301 3.5 -17.5s5.5 -15.167 9.5 -22.5s8.66699 -13.833 14 -19.5
s11.333 -8.5 18 -8.5h246c5.33301 0 10.5 2.16699 15.5 6.5s9.5 10 13.5 17s7.16699 14.667 9.5 23s3.5 16.5 3.5 24.5zM310 840h204l61 -141h-197z" />
    <glyph glyph-name="FL00D3h" unicode="&#xd3;" 
d="M33 420c0 25.333 4.66699 52.333 14 81s22.666 55.167 39.999 79.5s38 44.5 62 60.5s50.667 24 80 24h453c28 0 53.833 -7.16699 77.5 -21.5s44.334 -32.5 62.001 -54.5s31.5 -46.167 41.5 -72.5s15 -51.5 15 -75.5v-217c0 -24 -5 -49.167 -15 -75.5
s-23.833 -50.5 -41.5 -72.5s-38.334 -40.167 -62.001 -54.5s-49.5 -21.5 -77.5 -21.5h-453c-29.333 0 -56 8 -80 24s-44.667 36.167 -62 60.5s-30.666 50.833 -39.999 79.5s-14 55.667 -14 81v175zM622 264v137c0 8 -1.16699 16.167 -3.5 24.5s-5.5 16 -9.5 23
s-8.5 12.667 -13.5 17s-10.167 6.5 -15.5 6.5h-246c-6.66699 0 -12.667 -2.83301 -18 -8.5s-10 -12.167 -14 -19.5s-7.16699 -14.833 -9.5 -22.5s-3.5 -13.5 -3.5 -17.5v-143c0 -4 1.16699 -9.83301 3.5 -17.5s5.5 -15.167 9.5 -22.5s8.66699 -13.833 14 -19.5
s11.333 -8.5 18 -8.5h246c5.33301 0 10.5 2.16699 15.5 6.5s9.5 10 13.5 17s7.16699 14.667 9.5 23s3.5 16.5 3.5 24.5zM396 840h204l-68 -141h-197z" />
    <glyph glyph-name="FL00D4h" unicode="&#xd4;" 
d="M33 420c0 25.333 4.66699 52.333 14 81s22.666 55.167 39.999 79.5s38 44.5 62 60.5s50.667 24 80 24h453c28 0 53.833 -7.16699 77.5 -21.5s44.334 -32.5 62.001 -54.5s31.5 -46.167 41.5 -72.5s15 -51.5 15 -75.5v-217c0 -24 -5 -49.167 -15 -75.5
s-23.833 -50.5 -41.5 -72.5s-38.334 -40.167 -62.001 -54.5s-49.5 -21.5 -77.5 -21.5h-453c-29.333 0 -56 8 -80 24s-44.667 36.167 -62 60.5s-30.666 50.833 -39.999 79.5s-14 55.667 -14 81v175zM622 264v137c0 8 -1.16699 16.167 -3.5 24.5s-5.5 16 -9.5 23
s-8.5 12.667 -13.5 17s-10.167 6.5 -15.5 6.5h-246c-6.66699 0 -12.667 -2.83301 -18 -8.5s-10 -12.167 -14 -19.5s-7.16699 -14.833 -9.5 -22.5s-3.5 -13.5 -3.5 -17.5v-143c0 -4 1.16699 -9.83301 3.5 -17.5s5.5 -15.167 9.5 -22.5s8.66699 -13.833 14 -19.5
s11.333 -8.5 18 -8.5h246c5.33301 0 10.5 2.16699 15.5 6.5s9.5 10 13.5 17s7.16699 14.667 9.5 23s3.5 16.5 3.5 24.5zM279 840h352l61 -140h-197l-40 87l-40 -87h-197z" />
    <glyph glyph-name="FL00D5h" unicode="&#xd5;" 
d="M33 420c0 25.333 4.66699 52.333 14 81s22.666 55.167 39.999 79.5s38 44.5 62 60.5s50.667 24 80 24h453c28 0 53.833 -7.16699 77.5 -21.5s44.334 -32.5 62.001 -54.5s31.5 -46.167 41.5 -72.5s15 -51.5 15 -75.5v-217c0 -24 -5 -49.167 -15 -75.5
s-23.833 -50.5 -41.5 -72.5s-38.334 -40.167 -62.001 -54.5s-49.5 -21.5 -77.5 -21.5h-453c-29.333 0 -56 8 -80 24s-44.667 36.167 -62 60.5s-30.666 50.833 -39.999 79.5s-14 55.667 -14 81v175zM622 264v137c0 8 -1.16699 16.167 -3.5 24.5s-5.5 16 -9.5 23
s-8.5 12.667 -13.5 17s-10.167 6.5 -15.5 6.5h-246c-6.66699 0 -12.667 -2.83301 -18 -8.5s-10 -12.167 -14 -19.5s-7.16699 -14.833 -9.5 -22.5s-3.5 -13.5 -3.5 -17.5v-143c0 -4 1.16699 -9.83301 3.5 -17.5s5.5 -15.167 9.5 -22.5s8.66699 -13.833 14 -19.5
s11.333 -8.5 18 -8.5h246c5.33301 0 10.5 2.16699 15.5 6.5s9.5 10 13.5 17s7.16699 14.667 9.5 23s3.5 16.5 3.5 24.5zM696 700h-271l-39 87l-40 -87h-197l61 139h270l40 -86l40 86h197z" />
    <glyph glyph-name="FL00D6h" unicode="&#xd6;" 
d="M33 420c0 25.333 4.66699 52.333 14 81s22.666 55.167 39.999 79.5s38 44.5 62 60.5s50.667 24 80 24h453c28 0 53.833 -7.16699 77.5 -21.5s44.334 -32.5 62.001 -54.5s31.5 -46.167 41.5 -72.5s15 -51.5 15 -75.5v-217c0 -24 -5 -49.167 -15 -75.5
s-23.833 -50.5 -41.5 -72.5s-38.334 -40.167 -62.001 -54.5s-49.5 -21.5 -77.5 -21.5h-453c-29.333 0 -56 8 -80 24s-44.667 36.167 -62 60.5s-30.666 50.833 -39.999 79.5s-14 55.667 -14 81v175zM622 264v137c0 8 -1.16699 16.167 -3.5 24.5s-5.5 16 -9.5 23
s-8.5 12.667 -13.5 17s-10.167 6.5 -15.5 6.5h-246c-6.66699 0 -12.667 -2.83301 -18 -8.5s-10 -12.167 -14 -19.5s-7.16699 -14.833 -9.5 -22.5s-3.5 -13.5 -3.5 -17.5v-143c0 -4 1.16699 -9.83301 3.5 -17.5s5.5 -15.167 9.5 -22.5s8.66699 -13.833 14 -19.5
s11.333 -8.5 18 -8.5h246c5.33301 0 10.5 2.16699 15.5 6.5s9.5 10 13.5 17s7.16699 14.667 9.5 23s3.5 16.5 3.5 24.5zM218 840h197v-140h-197v140zM495 840h197v-140h-197v140z" />
    <glyph glyph-name="FL007Dh" unicode="&#xd7;" horiz-adv-x="910" 
d="M33 0h293l129 155l129 -155h293l-276 332l276 333h-292l-130 -157l-130 157h-292l275 -333z" />
    <glyph glyph-name="FL00D8h" unicode="&#xd8;" 
d="M33 420c0 25.333 4.66699 52.333 14 81s22.666 55.167 39.999 79.5s38 44.5 62 60.5s50.667 24 80 24h453c28 0 53.833 -7.16699 77.5 -21.5s44.334 -32.5 62.001 -54.5s31.5 -46.167 41.5 -72.5s15 -51.5 15 -75.5v-217c0 -24 -5 -49.167 -15 -75.5
s-23.833 -50.5 -41.5 -72.5s-38.334 -40.167 -62.001 -54.5s-49.5 -21.5 -77.5 -21.5h-453c-29.333 0 -56 8 -80 24s-44.667 36.167 -62 60.5s-30.666 50.833 -39.999 79.5s-14 55.667 -14 81v175zM622 264v100l-149 -171h107c5.33301 0 10.5 2.16699 15.5 6.5
s9.5 10 13.5 17s7.16699 14.667 9.5 23s3.5 16.5 3.5 24.5zM289 404v-103l148 171h-103c-6.66699 0 -12.667 -2.83301 -18 -8.5s-10 -12.167 -14 -19.5s-7.16699 -14.833 -9.5 -22.5s-3.5 -13.5 -3.5 -17.5z" />
    <glyph glyph-name="FL00D9h" unicode="&#xd9;" 
d="M33 245v420h256v-404c0 -4 1.16699 -9.83301 3.5 -17.5s5.5 -15.167 9.5 -22.5s8.66699 -13.833 14 -19.5s11.333 -8.5 18 -8.5h246c5.33301 0 10.5 2.16699 15.5 6.5s9.5 10 13.5 17s7.16699 14.667 9.5 23s3.5 16.5 3.5 24.5v401h256v-441c0 -24 -5 -49.167 -15 -75.5
s-23.833 -50.5 -41.5 -72.5s-38.334 -40.167 -62.001 -54.5s-49.5 -21.5 -77.5 -21.5h-453c-29.333 0 -56 8 -80 24s-44.667 36.167 -62 60.5s-30.666 50.833 -39.999 79.5s-14 55.667 -14 81zM310 840h204l61 -141h-197z" />
    <glyph glyph-name="FL00DAh" unicode="&#xda;" 
d="M33 245v420h256v-404c0 -4 1.16699 -9.83301 3.5 -17.5s5.5 -15.167 9.5 -22.5s8.66699 -13.833 14 -19.5s11.333 -8.5 18 -8.5h246c5.33301 0 10.5 2.16699 15.5 6.5s9.5 10 13.5 17s7.16699 14.667 9.5 23s3.5 16.5 3.5 24.5v401h256v-441c0 -24 -5 -49.167 -15 -75.5
s-23.833 -50.5 -41.5 -72.5s-38.334 -40.167 -62.001 -54.5s-49.5 -21.5 -77.5 -21.5h-453c-29.333 0 -56 8 -80 24s-44.667 36.167 -62 60.5s-30.666 50.833 -39.999 79.5s-14 55.667 -14 81zM396 840h204l-68 -141h-197z" />
    <glyph glyph-name="FL00DBh" unicode="&#xdb;" 
d="M33 245v420h256v-404c0 -4 1.16699 -9.83301 3.5 -17.5s5.5 -15.167 9.5 -22.5s8.66699 -13.833 14 -19.5s11.333 -8.5 18 -8.5h246c5.33301 0 10.5 2.16699 15.5 6.5s9.5 10 13.5 17s7.16699 14.667 9.5 23s3.5 16.5 3.5 24.5v401h256v-441c0 -24 -5 -49.167 -15 -75.5
s-23.833 -50.5 -41.5 -72.5s-38.334 -40.167 -62.001 -54.5s-49.5 -21.5 -77.5 -21.5h-453c-29.333 0 -56 8 -80 24s-44.667 36.167 -62 60.5s-30.666 50.833 -39.999 79.5s-14 55.667 -14 81zM279 840h352l61 -140h-197l-40 87l-40 -87h-197z" />
    <glyph glyph-name="FL00DCh" unicode="&#xdc;" 
d="M33 245v420h256v-404c0 -4 1.16699 -9.83301 3.5 -17.5s5.5 -15.167 9.5 -22.5s8.66699 -13.833 14 -19.5s11.333 -8.5 18 -8.5h246c5.33301 0 10.5 2.16699 15.5 6.5s9.5 10 13.5 17s7.16699 14.667 9.5 23s3.5 16.5 3.5 24.5v401h256v-441c0 -24 -5 -49.167 -15 -75.5
s-23.833 -50.5 -41.5 -72.5s-38.334 -40.167 -62.001 -54.5s-49.5 -21.5 -77.5 -21.5h-453c-29.333 0 -56 8 -80 24s-44.667 36.167 -62 60.5s-30.666 50.833 -39.999 79.5s-14 55.667 -14 81zM218 840h197v-140h-197v140zM495 840h197v-140h-197v140z" />
    <glyph glyph-name="FL00DDh" unicode="&#xdd;" horiz-adv-x="916" 
d="M627 424l0.000976562 240.999h256v-467c0 -17.333 -4.16699 -37.333 -12.5 -60s-19.666 -44.334 -33.999 -65.001s-30.833 -38 -49.5 -52s-38.334 -21 -59.001 -21h-694v193h575c4.66699 4.66699 8.66699 8.83398 12 12.501s5.33301 7.16699 6 10.5v33h-446
c-4 0 -9 1.16699 -15 3.5s-12.167 5 -18.5 8s-12.166 6.33301 -17.499 10s-9.33301 6.83398 -12 9.50098c-15.333 13.333 -28.333 26.166 -39 38.499s-19.5 25.333 -26.5 39s-12 28.334 -15 44.001s-4.5 33.5 -4.5 53.5v210h255v-218
c1.33301 -2.66699 4.66602 -7.16699 9.99902 -13.5s8.66602 -9.5 9.99902 -9.5h319zM399.001 839.999h204l-68 -141h-197z" />
    <glyph glyph-name="FL00DEh" unicode="&#xde;" 
d="M33 665l255.999 0.00195312v-109h399c28.667 0 54.834 -7 78.501 -21s43.667 -31.833 60 -53.5s29 -45.834 38 -72.501s13.5 -53 13.5 -79c0 -32 -5.5 -60.167 -16.5 -84.5s-25.667 -45.333 -44 -63s-39.833 -32.334 -64.5 -44.001s-51 -20.5 -79 -26.5h-385v-112h-256
v665zM288.999 363.002v-171h7l140 112h158c6.66699 1.33301 12.5 4.5 17.5 9.5s7.5 11.167 7.5 18.5c0 4 -2 10.167 -6 18.5s-9 12.5 -15 12.5h-309z" />
    <glyph glyph-name="FL00DFh" unicode="&#xdf;" 
d="M33 -84v749h655c28.667 0 54.834 -6.16699 78.501 -18.5s43.667 -28.333 60 -48s29 -42 38 -67s13.5 -50.5 13.5 -76.5c0 -25.333 -4.5 -48.5 -13.5 -69.5s-19.5 -38.833 -31.5 -53.5c12 -14.667 22.5 -32.5 31.5 -53.5s13.5 -43.833 13.5 -68.5
c0 -26 -4.5 -51.5 -13.5 -76.5s-21.667 -47.333 -38 -67s-36.333 -35.667 -60 -48s-49.834 -18.5 -78.501 -18.5h-333v193h241c6 0 11 3.66699 15 11s6 13 6 17c0 6.66699 -2 13.167 -6 19.5s-8.66699 10.5 -14 12.5h-243v163h238c6.66699 1.33301 12.5 4.5 17.5 9.5
s7.5 11.167 7.5 18.5c0 4 -2 9.66699 -6 17s-9 11.333 -15 12h-307v-557h-256z" />
    <glyph glyph-name="FL00E0h" unicode="&#xe0;" horiz-adv-x="1107" 
d="M540 407l-180.002 -214h402l-185 216c-2.66699 2.66699 -5.66699 4.5 -9 5.5s-6.33301 1.5 -9 1.5c-5.33301 0 -8.66602 -0.333008 -9.99902 -1s-3.66602 -2.66699 -6.99902 -6zM32.998 0l-0.00195312 193l327 380c25.333 30 55 52.667 89 68s71 23 111 23
c21.333 0 40.5 -2 57.5 -6s33 -9.83301 48 -17.5s29.333 -17.167 43 -28.5s27.834 -24.333 42.501 -39l324 -383c2.66699 -5.33301 4.33398 -10 5.00098 -14s1 -8.33301 1 -13c-22 -32 -46.833 -62 -74.5 -90s-62.5 -52.333 -104.5 -73h-561v168l-145 -168h-163z
M397.996 840h204l61 -141h-197z" />
    <glyph glyph-name="FL00E1h" unicode="&#xe1;" horiz-adv-x="1107" 
d="M540 407l-180.002 -214h402l-185 216c-2.66699 2.66699 -5.66699 4.5 -9 5.5s-6.33301 1.5 -9 1.5c-5.33301 0 -8.66602 -0.333008 -9.99902 -1s-3.66602 -2.66699 -6.99902 -6zM32.998 0l-0.00195312 193l327 380c25.333 30 55 52.667 89 68s71 23 111 23
c21.333 0 40.5 -2 57.5 -6s33 -9.83301 48 -17.5s29.333 -17.167 43 -28.5s27.834 -24.333 42.501 -39l324 -383c2.66699 -5.33301 4.33398 -10 5.00098 -14s1 -8.33301 1 -13c-22 -32 -46.833 -62 -74.5 -90s-62.5 -52.333 -104.5 -73h-561v168l-145 -168h-163z
M490.996 840h204l-68 -141h-197z" />
    <glyph glyph-name="FL00E2h" unicode="&#xe2;" horiz-adv-x="1107" 
d="M540 407l-180.002 -214h402l-185 216c-2.66699 2.66699 -5.66699 4.5 -9 5.5s-6.33301 1.5 -9 1.5c-5.33301 0 -8.66602 -0.333008 -9.99902 -1s-3.66602 -2.66699 -6.99902 -6zM32.998 0l-0.00195312 193l327 380c25.333 30 55 52.667 89 68s71 23 111 23
c21.333 0 40.5 -2 57.5 -6s33 -9.83301 48 -17.5s29.333 -17.167 43 -28.5s27.834 -24.333 42.501 -39l324 -383c2.66699 -5.33301 4.33398 -10 5.00098 -14s1 -8.33301 1 -13c-22 -32 -46.833 -62 -74.5 -90s-62.5 -52.333 -104.5 -73h-561v168l-145 -168h-163z
M379.996 840h352l61 -140h-197l-40 87l-40 -87h-197z" />
    <glyph glyph-name="FL00E3h" unicode="&#xe3;" horiz-adv-x="1107" 
d="M540 407l-180.002 -214h402l-185 216c-2.66699 2.66699 -5.66699 4.5 -9 5.5s-6.33301 1.5 -9 1.5c-5.33301 0 -8.66602 -0.333008 -9.99902 -1s-3.66602 -2.66699 -6.99902 -6zM32.998 0l-0.00195312 193l327 380c25.333 30 55 52.667 89 68s71 23 111 23
c21.333 0 40.5 -2 57.5 -6s33 -9.83301 48 -17.5s29.333 -17.167 43 -28.5s27.834 -24.333 42.501 -39l324 -383c2.66699 -5.33301 4.33398 -10 5.00098 -14s1 -8.33301 1 -13c-22 -32 -46.833 -62 -74.5 -90s-62.5 -52.333 -104.5 -73h-561v168l-145 -168h-163z
M788.996 700h-271l-39 87l-40 -87h-197l61 139h270l40 -86l40 86h197z" />
    <glyph glyph-name="FL00E4h" unicode="&#xe4;" horiz-adv-x="1107" 
d="M540 407l-180.002 -214h402l-185 216c-2.66699 2.66699 -5.66699 4.5 -9 5.5s-6.33301 1.5 -9 1.5c-5.33301 0 -8.66602 -0.333008 -9.99902 -1s-3.66602 -2.66699 -6.99902 -6zM32.998 0l-0.00195312 193l327 380c25.333 30 55 52.667 89 68s71 23 111 23
c21.333 0 40.5 -2 57.5 -6s33 -9.83301 48 -17.5s29.333 -17.167 43 -28.5s27.834 -24.333 42.501 -39l324 -383c2.66699 -5.33301 4.33398 -10 5.00098 -14s1 -8.33301 1 -13c-22 -32 -46.833 -62 -74.5 -90s-62.5 -52.333 -104.5 -73h-561v168l-145 -168h-163z
M318.996 840h197v-140h-197v140zM595.996 840h197v-140h-197v140z" />
    <glyph glyph-name="FL00E5h" unicode="&#xe5;" horiz-adv-x="1107" 
d="M655 840h-197v-140h197v140zM33 193l0.00195312 -193h163l145 168v-168h561c42 20.667 76.833 45 104.5 73s52.5 58 74.5 90c0 4.66699 -0.333008 9 -1 13s-2.33398 8.66699 -5.00098 14l-324 383c-14.667 14.667 -28.834 27.667 -42.501 39s-28 20.833 -43 28.5
s-31 13.5 -48 17.5s-36.167 6 -57.5 6c-40 0 -77 -7.66699 -111 -23s-63.667 -38 -89 -68zM360.002 193l180.002 214l2 2c3.33301 3.33301 5.66602 5.33301 6.99902 6s4.66602 1 9.99902 1c2.66699 0 5.66699 -0.5 9 -1.5s6.33301 -2.83301 9 -5.5l185 -216h-402z
M522.004 790h68v-39h-68v39z" />
    <glyph glyph-name="FL00E6h" unicode="&#xe6;" horiz-adv-x="1705" 
d="M33 193l326.999 380c25.333 30 55 52.667 89 68s71 23 111 23c21.333 0 40.5 -2 57.5 -6s33 -9.83301 48 -17.5s29.333 -17.167 43 -28.5s27.834 -24.333 42.501 -39l76 -90v182h845v-241h-256v48h-333v-52h272v-171h-272v-56h333v56h256v-249h-1331v168l-145 -168h-163
v193zM359.999 193h401.998l-185 216c-2.66699 2.66699 -5.66699 4.5 -9 5.5s-6.33301 1.5 -9 1.5c-5.33301 0 -8.66602 -0.333008 -9.99902 -1s-3.66602 -2.66699 -6.99902 -6l-2 -2z" />
    <glyph glyph-name="FL00E7h" unicode="&#xe7;" 
d="M33 420c0 25.333 4.66602 52.332 13.999 80.999s22.666 55.167 39.999 79.5s38 44.5 62 60.5s50.667 24 80 24h453c28 0 53.833 -7.16699 77.5 -21.5s44.334 -32.5 62.001 -54.5s31.5 -46.167 41.5 -72.5s15 -51.5 15 -75.5v-17h-259
c-3.33301 12.667 -8.5 23.834 -15.5 33.501s-14.833 14.5 -23.5 14.5h-246c-6.66699 0 -12.667 -2.83301 -18 -8.5s-10 -12.167 -14 -19.5s-7.16699 -14.833 -9.5 -22.5s-3.5 -13.5 -3.5 -17.5v-143c0 -4 1.16699 -9.83301 3.5 -17.5s5.5 -15.167 9.5 -22.5
s8.66699 -13.833 14 -19.5s11.333 -8.5 18 -8.5h246c9.33301 0 17.833 5.83301 25.5 17.5s12.834 24.5 15.501 38.5h257v-25c0 -24 -5 -49.167 -15 -75.5s-23.833 -50.5 -41.5 -72.5s-38.334 -40.167 -62.001 -54.5s-49.5 -21.5 -77.5 -21.5h-105v-66l-241 -107v173h-107
c-29.333 0 -56 8 -80 24s-44.667 36.167 -62 60.5s-30.666 50.833 -39.999 79.5s-14 55.667 -14 81v175z" />
    <glyph glyph-name="FL00E8h" unicode="&#xe8;" 
d="M561 249h-272v-56h333v56h256v-249h-845v665h845v-241h-256v48h-333v-52h272v-171zM310 840h204l61 -141h-197z" />
    <glyph glyph-name="FL00E9h" unicode="&#xe9;" 
d="M561 249h-272v-56h333v56h256v-249h-845v665h845v-241h-256v48h-333v-52h272v-171zM396 840h204l-68 -141h-197z" />
    <glyph glyph-name="FL00EAh" unicode="&#xea;" 
d="M561 249h-272v-56h333v56h256v-249h-845v665h845v-241h-256v48h-333v-52h272v-171zM279 840h352l61 -140h-197l-40 87l-40 -87h-197z" />
    <glyph glyph-name="FL00EBh" unicode="&#xeb;" 
d="M561 249h-272v-56h333v56h256v-249h-845v665h845v-241h-256v48h-333v-52h272v-171zM218 840h197v-140h-197v140zM495 840h197v-140h-197v140z" />
    <glyph glyph-name="FL00ECh" unicode="&#xec;" horiz-adv-x="322" 
d="M33 0v665h256v-665h-256zM28 840h204l61 -141h-197z" />
    <glyph glyph-name="FL00EDh" unicode="&#xed;" horiz-adv-x="322" 
d="M33 0v665h256v-665h-256zM93 840h204l-68 -141h-197z" />
    <glyph glyph-name="FL00EEh" unicode="&#xee;" horiz-adv-x="322" 
d="M33 0v665h256v-665h-256zM-16 840h352l61 -140h-197l-40 87l-40 -87h-197z" />
    <glyph glyph-name="FL00EFh" unicode="&#xef;" horiz-adv-x="322" 
d="M33 0v665h256v-665h-256zM-77 840h197v-140h-197v140zM200 840h197v-140h-197v140z" />
    <glyph glyph-name="FL00F0h" unicode="&#xf0;" horiz-adv-x="910" 
d="M877 420c0 25.333 -4.66602 52.332 -13.999 80.999s-22.666 55.167 -39.999 79.5s-38 44.5 -62 60.5s-50.667 24 -80 24h-609v-193h504c9.33301 0 17.833 -5.66699 25.5 -17s13.167 -22.666 16.5 -33.999h-392c-28.667 0 -54.834 -6.16699 -78.501 -18.5
s-44 -28.5 -61 -48.5s-30.167 -42.833 -39.5 -68.5s-14 -51.5 -14 -77.5v-4c0 -24 5.33301 -48 16 -72s25 -45.833 43 -65.5s38.667 -35.667 62 -48s48 -18.5 74 -18.5h453c29.333 0 56 8 80 24s44.667 36.167 62 60.5s30.666 50.833 39.999 79.5s14 55.667 14 81v175z
M619.001 247.999c-1.33301 -5.33301 -3.33008 -11.166 -5.99707 -17.499s-5.83398 -12.333 -9.50098 -18s-7.83398 -10.334 -12.501 -14.001s-9.66699 -5.5 -15 -5.5h-246c-11.333 0 -21.333 8 -30 24c1.33301 11.333 4.66602 19.333 9.99902 24s9.33301 7 12 7h297z" />
    <glyph glyph-name="FL00F1h" unicode="&#xf1;" 
d="M33 665h208c21.333 0 43.333 -6.16699 66 -18.5s48.5 -31 77.5 -56s62.667 -56 101 -93l136.5 -129.5v297h256v-502c-18 -30 -40.167 -59.5 -66.5 -88.5s-60.5 -53.833 -102.5 -74.5h-51l-369 348v-348h-256v665zM696 700h-271l-39 87l-40 -87h-197l61 139h270l40 -86
l40 86h197z" />
    <glyph glyph-name="FL00F2h" unicode="&#xf2;" 
d="M33 420c0 25.333 4.66699 52.333 14 81s22.666 55.167 39.999 79.5s38 44.5 62 60.5s50.667 24 80 24h453c28 0 53.833 -7.16699 77.5 -21.5s44.334 -32.5 62.001 -54.5s31.5 -46.167 41.5 -72.5s15 -51.5 15 -75.5v-217c0 -24 -5 -49.167 -15 -75.5
s-23.833 -50.5 -41.5 -72.5s-38.334 -40.167 -62.001 -54.5s-49.5 -21.5 -77.5 -21.5h-453c-29.333 0 -56 8 -80 24s-44.667 36.167 -62 60.5s-30.666 50.833 -39.999 79.5s-14 55.667 -14 81v175zM622 264v137c0 8 -1.16699 16.167 -3.5 24.5s-5.5 16 -9.5 23
s-8.5 12.667 -13.5 17s-10.167 6.5 -15.5 6.5h-246c-6.66699 0 -12.667 -2.83301 -18 -8.5s-10 -12.167 -14 -19.5s-7.16699 -14.833 -9.5 -22.5s-3.5 -13.5 -3.5 -17.5v-143c0 -4 1.16699 -9.83301 3.5 -17.5s5.5 -15.167 9.5 -22.5s8.66699 -13.833 14 -19.5
s11.333 -8.5 18 -8.5h246c5.33301 0 10.5 2.16699 15.5 6.5s9.5 10 13.5 17s7.16699 14.667 9.5 23s3.5 16.5 3.5 24.5zM310 840h204l61 -141h-197z" />
    <glyph glyph-name="FL00F3h" unicode="&#xf3;" 
d="M33 420c0 25.333 4.66699 52.333 14 81s22.666 55.167 39.999 79.5s38 44.5 62 60.5s50.667 24 80 24h453c28 0 53.833 -7.16699 77.5 -21.5s44.334 -32.5 62.001 -54.5s31.5 -46.167 41.5 -72.5s15 -51.5 15 -75.5v-217c0 -24 -5 -49.167 -15 -75.5
s-23.833 -50.5 -41.5 -72.5s-38.334 -40.167 -62.001 -54.5s-49.5 -21.5 -77.5 -21.5h-453c-29.333 0 -56 8 -80 24s-44.667 36.167 -62 60.5s-30.666 50.833 -39.999 79.5s-14 55.667 -14 81v175zM622 264v137c0 8 -1.16699 16.167 -3.5 24.5s-5.5 16 -9.5 23
s-8.5 12.667 -13.5 17s-10.167 6.5 -15.5 6.5h-246c-6.66699 0 -12.667 -2.83301 -18 -8.5s-10 -12.167 -14 -19.5s-7.16699 -14.833 -9.5 -22.5s-3.5 -13.5 -3.5 -17.5v-143c0 -4 1.16699 -9.83301 3.5 -17.5s5.5 -15.167 9.5 -22.5s8.66699 -13.833 14 -19.5
s11.333 -8.5 18 -8.5h246c5.33301 0 10.5 2.16699 15.5 6.5s9.5 10 13.5 17s7.16699 14.667 9.5 23s3.5 16.5 3.5 24.5zM396 840h204l-68 -141h-197z" />
    <glyph glyph-name="FL00F4h" unicode="&#xf4;" 
d="M33 420c0 25.333 4.66699 52.333 14 81s22.666 55.167 39.999 79.5s38 44.5 62 60.5s50.667 24 80 24h453c28 0 53.833 -7.16699 77.5 -21.5s44.334 -32.5 62.001 -54.5s31.5 -46.167 41.5 -72.5s15 -51.5 15 -75.5v-217c0 -24 -5 -49.167 -15 -75.5
s-23.833 -50.5 -41.5 -72.5s-38.334 -40.167 -62.001 -54.5s-49.5 -21.5 -77.5 -21.5h-453c-29.333 0 -56 8 -80 24s-44.667 36.167 -62 60.5s-30.666 50.833 -39.999 79.5s-14 55.667 -14 81v175zM622 264v137c0 8 -1.16699 16.167 -3.5 24.5s-5.5 16 -9.5 23
s-8.5 12.667 -13.5 17s-10.167 6.5 -15.5 6.5h-246c-6.66699 0 -12.667 -2.83301 -18 -8.5s-10 -12.167 -14 -19.5s-7.16699 -14.833 -9.5 -22.5s-3.5 -13.5 -3.5 -17.5v-143c0 -4 1.16699 -9.83301 3.5 -17.5s5.5 -15.167 9.5 -22.5s8.66699 -13.833 14 -19.5
s11.333 -8.5 18 -8.5h246c5.33301 0 10.5 2.16699 15.5 6.5s9.5 10 13.5 17s7.16699 14.667 9.5 23s3.5 16.5 3.5 24.5zM279 840h352l61 -140h-197l-40 87l-40 -87h-197z" />
    <glyph glyph-name="FL00F5h" unicode="&#xf5;" 
d="M33 420c0 25.333 4.66699 52.333 14 81s22.666 55.167 39.999 79.5s38 44.5 62 60.5s50.667 24 80 24h453c28 0 53.833 -7.16699 77.5 -21.5s44.334 -32.5 62.001 -54.5s31.5 -46.167 41.5 -72.5s15 -51.5 15 -75.5v-217c0 -24 -5 -49.167 -15 -75.5
s-23.833 -50.5 -41.5 -72.5s-38.334 -40.167 -62.001 -54.5s-49.5 -21.5 -77.5 -21.5h-453c-29.333 0 -56 8 -80 24s-44.667 36.167 -62 60.5s-30.666 50.833 -39.999 79.5s-14 55.667 -14 81v175zM622 264v137c0 8 -1.16699 16.167 -3.5 24.5s-5.5 16 -9.5 23
s-8.5 12.667 -13.5 17s-10.167 6.5 -15.5 6.5h-246c-6.66699 0 -12.667 -2.83301 -18 -8.5s-10 -12.167 -14 -19.5s-7.16699 -14.833 -9.5 -22.5s-3.5 -13.5 -3.5 -17.5v-143c0 -4 1.16699 -9.83301 3.5 -17.5s5.5 -15.167 9.5 -22.5s8.66699 -13.833 14 -19.5
s11.333 -8.5 18 -8.5h246c5.33301 0 10.5 2.16699 15.5 6.5s9.5 10 13.5 17s7.16699 14.667 9.5 23s3.5 16.5 3.5 24.5zM696 700h-271l-39 87l-40 -87h-197l61 139h270l40 -86l40 86h197z" />
    <glyph glyph-name="FL00F6h" unicode="&#xf6;" 
d="M33 420c0 25.333 4.66699 52.333 14 81s22.666 55.167 39.999 79.5s38 44.5 62 60.5s50.667 24 80 24h453c28 0 53.833 -7.16699 77.5 -21.5s44.334 -32.5 62.001 -54.5s31.5 -46.167 41.5 -72.5s15 -51.5 15 -75.5v-217c0 -24 -5 -49.167 -15 -75.5
s-23.833 -50.5 -41.5 -72.5s-38.334 -40.167 -62.001 -54.5s-49.5 -21.5 -77.5 -21.5h-453c-29.333 0 -56 8 -80 24s-44.667 36.167 -62 60.5s-30.666 50.833 -39.999 79.5s-14 55.667 -14 81v175zM622 264v137c0 8 -1.16699 16.167 -3.5 24.5s-5.5 16 -9.5 23
s-8.5 12.667 -13.5 17s-10.167 6.5 -15.5 6.5h-246c-6.66699 0 -12.667 -2.83301 -18 -8.5s-10 -12.167 -14 -19.5s-7.16699 -14.833 -9.5 -22.5s-3.5 -13.5 -3.5 -17.5v-143c0 -4 1.16699 -9.83301 3.5 -17.5s5.5 -15.167 9.5 -22.5s8.66699 -13.833 14 -19.5
s11.333 -8.5 18 -8.5h246c5.33301 0 10.5 2.16699 15.5 6.5s9.5 10 13.5 17s7.16699 14.667 9.5 23s3.5 16.5 3.5 24.5zM218 840h197v-140h-197v140zM495 840h197v-140h-197v140z" />
    <glyph glyph-name="FL00F7h" unicode="&#xf7;" horiz-adv-x="564" 
d="M531 249h-498v171h498v-171zM189 593h197v-140h-197v140zM189 212h197v-140h-197v140z" />
    <glyph glyph-name="FL00F8h" unicode="&#xf8;" 
d="M33 420c0 25.333 4.66699 52.333 14 81s22.666 55.167 39.999 79.5s38 44.5 62 60.5s50.667 24 80 24h453c28 0 53.833 -7.16699 77.5 -21.5s44.334 -32.5 62.001 -54.5s31.5 -46.167 41.5 -72.5s15 -51.5 15 -75.5v-217c0 -24 -5 -49.167 -15 -75.5
s-23.833 -50.5 -41.5 -72.5s-38.334 -40.167 -62.001 -54.5s-49.5 -21.5 -77.5 -21.5h-453c-29.333 0 -56 8 -80 24s-44.667 36.167 -62 60.5s-30.666 50.833 -39.999 79.5s-14 55.667 -14 81v175zM622 264v100l-149 -171h107c5.33301 0 10.5 2.16699 15.5 6.5
s9.5 10 13.5 17s7.16699 14.667 9.5 23s3.5 16.5 3.5 24.5zM289 404v-103l148 171h-103c-6.66699 0 -12.667 -2.83301 -18 -8.5s-10 -12.167 -14 -19.5s-7.16699 -14.833 -9.5 -22.5s-3.5 -13.5 -3.5 -17.5z" />
    <glyph glyph-name="FL00F9h" unicode="&#xf9;" 
d="M33 245v420h256v-404c0 -4 1.16699 -9.83301 3.5 -17.5s5.5 -15.167 9.5 -22.5s8.66699 -13.833 14 -19.5s11.333 -8.5 18 -8.5h246c5.33301 0 10.5 2.16699 15.5 6.5s9.5 10 13.5 17s7.16699 14.667 9.5 23s3.5 16.5 3.5 24.5v401h256v-441c0 -24 -5 -49.167 -15 -75.5
s-23.833 -50.5 -41.5 -72.5s-38.334 -40.167 -62.001 -54.5s-49.5 -21.5 -77.5 -21.5h-453c-29.333 0 -56 8 -80 24s-44.667 36.167 -62 60.5s-30.666 50.833 -39.999 79.5s-14 55.667 -14 81zM310 840h204l61 -141h-197z" />
    <glyph glyph-name="FL00FAh" unicode="&#xfa;" 
d="M33 245v420h256v-404c0 -4 1.16699 -9.83301 3.5 -17.5s5.5 -15.167 9.5 -22.5s8.66699 -13.833 14 -19.5s11.333 -8.5 18 -8.5h246c5.33301 0 10.5 2.16699 15.5 6.5s9.5 10 13.5 17s7.16699 14.667 9.5 23s3.5 16.5 3.5 24.5v401h256v-441c0 -24 -5 -49.167 -15 -75.5
s-23.833 -50.5 -41.5 -72.5s-38.334 -40.167 -62.001 -54.5s-49.5 -21.5 -77.5 -21.5h-453c-29.333 0 -56 8 -80 24s-44.667 36.167 -62 60.5s-30.666 50.833 -39.999 79.5s-14 55.667 -14 81zM396 840h204l-68 -141h-197z" />
    <glyph glyph-name="FL00FBh" unicode="&#xfb;" 
d="M33 245v420h256v-404c0 -4 1.16699 -9.83301 3.5 -17.5s5.5 -15.167 9.5 -22.5s8.66699 -13.833 14 -19.5s11.333 -8.5 18 -8.5h246c5.33301 0 10.5 2.16699 15.5 6.5s9.5 10 13.5 17s7.16699 14.667 9.5 23s3.5 16.5 3.5 24.5v401h256v-441c0 -24 -5 -49.167 -15 -75.5
s-23.833 -50.5 -41.5 -72.5s-38.334 -40.167 -62.001 -54.5s-49.5 -21.5 -77.5 -21.5h-453c-29.333 0 -56 8 -80 24s-44.667 36.167 -62 60.5s-30.666 50.833 -39.999 79.5s-14 55.667 -14 81zM279 840h352l61 -140h-197l-40 87l-40 -87h-197z" />
    <glyph glyph-name="FL00FCh" unicode="&#xfc;" 
d="M33 245v420h256v-404c0 -4 1.16699 -9.83301 3.5 -17.5s5.5 -15.167 9.5 -22.5s8.66699 -13.833 14 -19.5s11.333 -8.5 18 -8.5h246c5.33301 0 10.5 2.16699 15.5 6.5s9.5 10 13.5 17s7.16699 14.667 9.5 23s3.5 16.5 3.5 24.5v401h256v-441c0 -24 -5 -49.167 -15 -75.5
s-23.833 -50.5 -41.5 -72.5s-38.334 -40.167 -62.001 -54.5s-49.5 -21.5 -77.5 -21.5h-453c-29.333 0 -56 8 -80 24s-44.667 36.167 -62 60.5s-30.666 50.833 -39.999 79.5s-14 55.667 -14 81zM218 840h197v-140h-197v140zM495 840h197v-140h-197v140z" />
    <glyph glyph-name="FL00FDh" unicode="&#xfd;" horiz-adv-x="916" 
d="M627 424l0.000976562 240.999h256v-467c0 -17.333 -4.16699 -37.333 -12.5 -60s-19.666 -44.334 -33.999 -65.001s-30.833 -38 -49.5 -52s-38.334 -21 -59.001 -21h-694v193h575c4.66699 4.66699 8.66699 8.83398 12 12.501s5.33301 7.16699 6 10.5v33h-446
c-4 0 -9 1.16699 -15 3.5s-12.167 5 -18.5 8s-12.166 6.33301 -17.499 10s-9.33301 6.83398 -12 9.50098c-15.333 13.333 -28.333 26.166 -39 38.499s-19.5 25.333 -26.5 39s-12 28.334 -15 44.001s-4.5 33.5 -4.5 53.5v210h255v-218
c1.33301 -2.66699 4.66602 -7.16699 9.99902 -13.5s8.66602 -9.5 9.99902 -9.5h319zM399.001 839.999h204l-68 -141h-197z" />
    <glyph glyph-name="FL00FEh" unicode="&#xfe;" 
d="M33 665l255.999 0.00195312v-109h399c28.667 0 54.834 -7 78.501 -21s43.667 -31.833 60 -53.5s29 -45.834 38 -72.501s13.5 -53 13.5 -79c0 -32 -5.5 -60.167 -16.5 -84.5s-25.667 -45.333 -44 -63s-39.833 -32.334 -64.5 -44.001s-51 -20.5 -79 -26.5h-385v-112h-256
v665zM288.999 363.002v-171h7l140 112h158c6.66699 1.33301 12.5 4.5 17.5 9.5s7.5 11.167 7.5 18.5c0 4 -2 10.167 -6 18.5s-9 12.5 -15 12.5h-309z" />
    <glyph glyph-name="FL00FFh" unicode="&#xff;" horiz-adv-x="916" 
d="M627 424l0.000976562 240.999h256v-467c0 -17.333 -4.16699 -37.333 -12.5 -60s-19.666 -44.334 -33.999 -65.001s-30.833 -38 -49.5 -52s-38.334 -21 -59.001 -21h-694v193h575c4.66699 4.66699 8.66699 8.83398 12 12.501s5.33301 7.16699 6 10.5v33h-446
c-4 0 -9 1.16699 -15 3.5s-12.167 5 -18.5 8s-12.166 6.33301 -17.499 10s-9.33301 6.83398 -12 9.50098c-15.333 13.333 -28.333 26.166 -39 38.499s-19.5 25.333 -26.5 39s-12 28.334 -15 44.001s-4.5 33.5 -4.5 53.5v210h255v-218
c1.33301 -2.66699 4.66602 -7.16699 9.99902 -13.5s8.66602 -9.5 9.99902 -9.5h319zM220.001 839.999h197v-140h-197v140zM497.001 839.999h197v-140h-197v140z" />
    <glyph glyph-name="FL0152h" unicode="&#x152;" horiz-adv-x="1666" 
d="M33 420c0 25.333 4.66699 52.333 14 81s22.666 55.167 39.999 79.5s38 44.5 62 60.5s50.667 24 80 24h453c38.667 0 74 -14 106 -42v42h845v-241h-256v48h-333v-52h272v-171h-272v-56h333v56h256v-249h-845v41c-15.333 -12.667 -32 -22.667 -50 -30s-36.667 -11 -56 -11
h-453c-29.333 0 -56 8 -80 24s-44.667 36.167 -62 60.5s-30.666 50.833 -39.999 79.5s-14 55.667 -14 81v175zM580 193c9.33301 0 17.832 5.83203 25.499 17.499s12.834 24.5 15.501 38.5h167v175h-169c-3.33301 12.667 -8.5 23.834 -15.5 33.501s-14.833 14.5 -23.5 14.5
h-246c-6.66699 0 -12.667 -2.83301 -18 -8.5s-10 -12.167 -14 -19.5s-7.16699 -14.833 -9.5 -22.5s-3.5 -13.5 -3.5 -17.5v-143c0 -4 1.16699 -9.83301 3.5 -17.5s5.5 -15.167 9.5 -22.5s8.66699 -13.833 14 -19.5s11.333 -8.5 18 -8.5h246z" />
    <glyph glyph-name="FL0153h" unicode="&#x153;" horiz-adv-x="1666" 
d="M33 420c0 25.333 4.66699 52.333 14 81s22.666 55.167 39.999 79.5s38 44.5 62 60.5s50.667 24 80 24h453c38.667 0 74 -14 106 -42v42h845v-241h-256v48h-333v-52h272v-171h-272v-56h333v56h256v-249h-845v41c-15.333 -12.667 -32 -22.667 -50 -30s-36.667 -11 -56 -11
h-453c-29.333 0 -56 8 -80 24s-44.667 36.167 -62 60.5s-30.666 50.833 -39.999 79.5s-14 55.667 -14 81v175zM580 193c9.33301 0 17.832 5.83203 25.499 17.499s12.834 24.5 15.501 38.5h167v175h-169c-3.33301 12.667 -8.5 23.834 -15.5 33.501s-14.833 14.5 -23.5 14.5
h-246c-6.66699 0 -12.667 -2.83301 -18 -8.5s-10 -12.167 -14 -19.5s-7.16699 -14.833 -9.5 -22.5s-3.5 -13.5 -3.5 -17.5v-143c0 -4 1.16699 -9.83301 3.5 -17.5s5.5 -15.167 9.5 -22.5s8.66699 -13.833 14 -19.5s11.333 -8.5 18 -8.5h246z" />
    <glyph glyph-name="FL0160h" unicode="&#x160;" horiz-adv-x="916" 
d="M34 0l0.000976562 192.997h575c10 10 15 18.333 15 25c0 2 -0.833008 5.16699 -2.5 9.5s-4.16699 7.83301 -7.5 10.5c-1.33301 2 -4.66602 4.33301 -9.99902 7s-8.33301 4 -9 4h-414c-4 0 -9 1.16699 -15 3.5s-12.167 5 -18.5 8s-12.166 6.33301 -17.499 10
s-9.33301 6.83398 -12 9.50098c-15.333 13.333 -28.333 26.166 -39 38.499s-19.5 25.333 -26.5 39s-12 28.334 -15 44.001s-4.5 33.5 -4.5 53.5c0 26 4.5 51.5 13.5 76.5s21.833 47.5 38.5 67.5s36.667 36 60 48s49.333 18 78 18h617v-192h-526
c-5.33301 0 -10.166 -3.66699 -14.499 -11s-6.5 -13 -6.5 -17v-4c1.33301 -2.66699 3.66602 -6.16699 6.99902 -10.5s5.66602 -6.5 6.99902 -6.5h393c0.666992 0 3.5 -0.5 8.5 -1.5s10.667 -2.33301 17 -4s12.666 -3.5 18.999 -5.5s11.166 -3.66699 14.499 -5
c45.333 -19.333 77.333 -46.666 96 -81.999s28 -77.333 28 -126c0 -18 -4.16699 -38.5 -12.5 -61.5s-19.5 -44.667 -33.5 -65s-30.5 -37.666 -49.5 -51.999s-38.833 -21.5 -59.5 -21.5h-694zM631.001 699.997h-352l-61 140h197l40 -87l40 87h197z" />
    <glyph glyph-name="FL0161h" unicode="&#x161;" horiz-adv-x="916" 
d="M34 0l0.000976562 192.997h575c10 10 15 18.333 15 25c0 2 -0.833008 5.16699 -2.5 9.5s-4.16699 7.83301 -7.5 10.5c-1.33301 2 -4.66602 4.33301 -9.99902 7s-8.33301 4 -9 4h-414c-4 0 -9 1.16699 -15 3.5s-12.167 5 -18.5 8s-12.166 6.33301 -17.499 10
s-9.33301 6.83398 -12 9.50098c-15.333 13.333 -28.333 26.166 -39 38.499s-19.5 25.333 -26.5 39s-12 28.334 -15 44.001s-4.5 33.5 -4.5 53.5c0 26 4.5 51.5 13.5 76.5s21.833 47.5 38.5 67.5s36.667 36 60 48s49.333 18 78 18h617v-192h-526
c-5.33301 0 -10.166 -3.66699 -14.499 -11s-6.5 -13 -6.5 -17v-4c1.33301 -2.66699 3.66602 -6.16699 6.99902 -10.5s5.66602 -6.5 6.99902 -6.5h393c0.666992 0 3.5 -0.5 8.5 -1.5s10.667 -2.33301 17 -4s12.666 -3.5 18.999 -5.5s11.166 -3.66699 14.499 -5
c45.333 -19.333 77.333 -46.666 96 -81.999s28 -77.333 28 -126c0 -18 -4.16699 -38.5 -12.5 -61.5s-19.5 -44.667 -33.5 -65s-30.5 -37.666 -49.5 -51.999s-38.833 -21.5 -59.5 -21.5h-694zM631.001 699.997h-352l-61 140h197l40 -87l40 87h197z" />
    <glyph glyph-name="FL0178h" unicode="&#x178;" horiz-adv-x="916" 
d="M627 424l0.000976562 240.999h256v-467c0 -17.333 -4.16699 -37.333 -12.5 -60s-19.666 -44.334 -33.999 -65.001s-30.833 -38 -49.5 -52s-38.334 -21 -59.001 -21h-694v193h575c4.66699 4.66699 8.66699 8.83398 12 12.501s5.33301 7.16699 6 10.5v33h-446
c-4 0 -9 1.16699 -15 3.5s-12.167 5 -18.5 8s-12.166 6.33301 -17.499 10s-9.33301 6.83398 -12 9.50098c-15.333 13.333 -28.333 26.166 -39 38.499s-19.5 25.333 -26.5 39s-12 28.334 -15 44.001s-4.5 33.5 -4.5 53.5v210h255v-218
c1.33301 -2.66699 4.66602 -7.16699 9.99902 -13.5s8.66602 -9.5 9.99902 -9.5h319zM220.001 839.999h197v-140h-197v140zM497.001 839.999h197v-140h-197v140z" />
    <glyph glyph-name="FL0192h" unicode="&#x192;" horiz-adv-x="910" 
d="M33 245l0.00195312 174.999c0 25.333 4.66699 52.333 14 81s22.666 55.167 39.999 79.5s38 44.5 62 60.5s50.667 24 80 24h453c26 0 50.667 -6.16699 74 -18.5s44 -28.333 62 -48s32.333 -41.5 43 -65.5s16 -48 16 -72v-4c0 -26 -4.66699 -51.833 -14 -77.5
s-22.5 -48.5 -39.5 -68.5s-37.333 -36.167 -61 -48.5s-49.834 -18.5 -78.501 -18.5h-392c3.33301 -11.333 8.66602 -22.666 15.999 -33.999s16 -17 26 -17h504v-193h-609c-29.333 0 -56 8 -80 24s-44.667 36.167 -62 60.5s-30.666 50.833 -39.999 79.5s-14 55.667 -14 81z
M334.002 471.999c-5.33301 0 -10.3301 -1.83301 -14.9971 -5.5s-8.83398 -8.33398 -12.501 -14.001s-6.83398 -11.667 -9.50098 -18s-4.66699 -12.166 -6 -17.499h297c2.66699 0 6.66699 2.33301 12 7s8.66602 12.667 9.99902 24c-9.33301 16 -19.333 24 -30 24h-246z" />
    <glyph glyph-name="FL02C6h" unicode="&#x2c6;" horiz-adv-x="514" 
d="M81 732h352l61 -140h-197l-40 87l-40 -87h-197z" />
    <glyph glyph-name="FL02DCh" unicode="&#x2dc;" horiz-adv-x="588" 
d="M513 564h-245l-34 105l-37 -105h-177l55 168h243l36 -104l36 104h178z" />
    <glyph glyph-name="FL2013h" unicode="&#x2013;" horiz-adv-x="504" 
d="M471 249h-438v171h438v-171z" />
    <glyph glyph-name="FL2014h" unicode="&#x2014;" horiz-adv-x="564" 
d="M531 249h-498v171h498v-171z" />
    <glyph glyph-name="FL2018h" unicode="&#x2018;" horiz-adv-x="323" 
d="M33 329v193l257 143v-336h-257z" />
    <glyph glyph-name="FL2019h" unicode="&#x2019;" horiz-adv-x="323" 
d="M290 665v-193l-257 -143v336h257z" />
    <glyph glyph-name="FL201Ah" unicode="&#x201a;" horiz-adv-x="323" 
d="M290 193v-193l-257 -143v336h257z" />
    <glyph glyph-name="FL201Ch" unicode="&#x201c;" horiz-adv-x="581" 
d="M33 329v193l241 143v-336h-241zM306 329v193l242 143v-336h-242z" />
    <glyph glyph-name="FL201Dh" unicode="&#x201d;" horiz-adv-x="581" 
d="M548 665v-193l-241 -143v336h241zM275 665v-193l-242 -143v336h242z" />
    <glyph glyph-name="FL201Eh" unicode="&#x201e;" horiz-adv-x="613" 
d="M580 193v-193l-257 -143v336h257zM290 193v-193l-257 -143v336h257z" />
    <glyph glyph-name="FL2020h" unicode="&#x2020;" horiz-adv-x="578" 
d="M161 665h256v-130h128v-171h-128v-364h-256v364h-128v171h128v130z" />
    <glyph glyph-name="FL2021h" unicode="&#x2021;" horiz-adv-x="578" 
d="M161 665h256v-130h128v-171h-128v-59h128v-171h-128v-134h-256v134h-128v171h128v59h-128v171h128v130z" />
    <glyph glyph-name="FL00B7h" unicode="&#x2022;" 
d="M33 0v665h845v-665h-845zM622 193v279h-333v-279h333z" />
    <glyph glyph-name="FL2026h" unicode="&#x2026;" horiz-adv-x="900" 
d="M611 193h256v-193h-256v193zM322 193h256v-193h-256v193zM33 193h256v-193h-256v193z" />
    <glyph glyph-name="FL2030h" unicode="&#x2030;" horiz-adv-x="1446" 
d="M33 543c0 12.667 2.33398 26.167 7.00098 40.5s11.334 27.5 20.001 39.5s19 22 31 30s25.333 12 40 12h226c14 0 27 -3.66699 39 -11s22.333 -16.5 31 -27.5s15.5 -23 20.5 -36s7.5 -25.5 7.5 -37.5v-111l185 223h292l-276 -333h224c14 0 27 -3.66699 39 -11
s22.333 -16.5 31 -27.5s15.5 -23 20.5 -36s7.5 -25.5 7.5 -37.5v-108c0 -12 -2.5 -24.667 -7.5 -38s-11.833 -25.5 -20.5 -36.5s-19 -20 -31 -27s-25 -10.5 -39 -10.5h-226c-14.667 0 -28 4 -40 12s-22.333 18 -31 30s-15.334 25.167 -20.001 39.5s-7 27.833 -7 40.5v88
l-175 -210h-293l277 333h-234c-14.667 0 -28 4 -40 12s-22.333 18 -31 30s-15.334 25.167 -20.001 39.5s-7 27.833 -7 40.5v88zM991.001 210c0 12.667 2.33301 26.167 7 40.5s11.334 27.5 20.001 39.5s19 22 31 30s25.333 12 40 12h226c14 0 27 -3.66699 39 -11
s22.333 -16.5 31 -27.5s15.5 -23 20.5 -36s7.5 -25.5 7.5 -37.5v-108c0 -12 -2.5 -24.667 -7.5 -38s-11.833 -25.5 -20.5 -36.5s-19 -20 -31 -27s-25 -10.5 -39 -10.5h-226c-14.667 0 -28 4 -40 12s-22.333 18 -31 30s-15.334 25.167 -20.001 39.5s-7 27.833 -7 40.5v88z
M285.001 482v34c0 4 -1 8 -3 12s-4.33301 6 -7 6h-62c-3.33301 0 -6 -2.33301 -8 -7s-3 -8 -3 -10v-36c0 -2 1 -5.33301 3 -10s4.66699 -7 8 -7h62c2.66699 0 5 2 7 6s3 8 3 12zM808.001 149v34c0 4 -1 8 -3 12s-4.33301 6 -7 6h-62c-3.33301 0 -6 -2.33301 -8 -7
s-3 -8 -3 -10v-36c0 -2 1 -5.33301 3 -10s4.66699 -7 8 -7h62c2.66699 0 5 2 7 6s3 8 3 12zM1243 149v34c0 4 -1 8 -3 12s-4.33301 6 -7 6h-62c-3.33301 0 -6 -2.33301 -8 -7s-3 -8 -3 -10v-36c0 -2 1 -5.33301 3 -10s4.66699 -7 8 -7h62c2.66699 0 5 2 7 6s3 8 3 12z" />
    <glyph glyph-name="FL2039h" unicode="&#x2039;" horiz-adv-x="609" 
d="M20 332l276 -332h293l-276 332l276 333h-292z" />
    <glyph glyph-name="FL203Ah" unicode="&#x203a;" horiz-adv-x="609" 
d="M589 332l-276 -332h-293l276 332l-276 333h292z" />
    <glyph glyph-name="FL2122h" unicode="&#x2122;" horiz-adv-x="326" 
d="M79 711v-112h20v112h46v21h-112v-21h46zM167 728v-129.001h14v87l6 7l32 -86c1.33301 -4 2.83301 -6.33301 4.5 -7s3.5 -1 5.5 -1c4 0 6.5 0.333008 7.5 1s2.16699 3 3.5 7l33 88l5 -9v-87h15v133h-6c-9.33301 0 -18 -3.33301 -26 -10s-14.667 -19.667 -20 -39
c-2 -9.33301 -3.83301 -17.333 -5.5 -24s-3.83398 -13.667 -6.50098 -21l-7 21c-2.66699 8 -5.66699 17.667 -9 29l-2 7c-1.33301 4 -3.5 8.33301 -6.5 13s-6.16699 8.83398 -9.5 12.501s-6.5 6.66699 -9.5 9s-5.5 3.5 -7.5 3.5c-0.666992 0 -1.16699 -0.166992 -1.5 -0.5
s-0.166016 -0.5 0.500977 -0.5l1 -1c0 -0.666992 -1.66699 -1 -5 -1c-2.66699 0 -4.66699 -0.666992 -6 -2z" />
    <glyph glyph-name=".null" horiz-adv-x="0" 
 />
    <glyph glyph-name="nonmarkingreturn" horiz-adv-x="500" 
 />
    <glyph glyph-name="FL007Ch" horiz-adv-x="1248" 
d="M496 665l0.00195312 -415h-93c-5.33301 0 -9.33301 0.833008 -12 2.5s-3.66699 2.5 -3 2.5l-4 4l-93 406h-272l137 -543c19.333 -36.667 47.666 -66.167 84.999 -88.5s80.333 -33.5 129 -33.5h508c46 0 85.667 8 119 24s58.666 40.333 75.999 73l156 568h-272l-93 -406
l-4 -5c-2 -1.33301 -3.83301 -2.33301 -5.5 -3s-4.5 -1 -8.5 -1h-94v415h-256z" />
    </font>
</defs>
</svg>
